<?xml version="1.0" encoding="UTF-8" standalone="no"?>
<svg
   xmlns:dc="http://purl.org/dc/elements/1.1/"
   xmlns:cc="http://creativecommons.org/ns#"
   xmlns:rdf="http://www.w3.org/1999/02/22-rdf-syntax-ns#"
   xmlns:svg="http://www.w3.org/2000/svg"
   xmlns="http://www.w3.org/2000/svg"
   xmlns:sodipodi="http://sodipodi.sourceforge.net/DTD/sodipodi-0.dtd"
   xmlns:inkscape="http://www.inkscape.org/namespaces/inkscape"
   width="200"
   height="200"
   viewBox="0 0 200 200"
   version="1.1"
   id="svg8"
   inkscape:version="1.0 (4035a4fb49, 2020-05-01)"
   sodipodi:docname="card.svg">
  <defs
     id="defs2">
    <inkscape:path-effect
       hide_knots="false"
       only_selected="false"
       apply_with_radius="true"
       apply_no_radius="true"
       use_knot_distance="true"
       flexible="false"
       chamfer_steps="1"
       radius="8"
       mode="F"
       method="auto"
       unit="px"
       satellites_param="F,0,0,1,0,8,0,1 @ F,0,0,1,0,8,0,1 @ F,0,0,1,0,8,0,1 @ F,0,0,1,0,8,0,1"
       lpeversion="1"
       is_visible="true"
       id="path-effect1408"
       effect="fillet_chamfer" />
  </defs>
  <sodipodi:namedview
     inkscape:snap-page="true"
     inkscape:snap-object-midpoints="true"
     id="base"
     pagecolor="#808080"
     bordercolor="#666666"
     borderopacity="1.0"
     inkscape:pageopacity="1"
     inkscape:pageshadow="2"
     inkscape:zoom="2.8284271"
     inkscape:cx="84.962314"
     inkscape:cy="106.78757"
     inkscape:document-units="px"
     inkscape:current-layer="layer1"
     inkscape:document-rotation="0"
     showgrid="false"
     units="px"
     inkscape:pagecheckerboard="true"
     inkscape:window-width="1920"
     inkscape:window-height="1001"
     inkscape:window-x="-9"
     inkscape:window-y="-9"
     inkscape:window-maximized="1" />
  <metadata
     id="metadata5">
    <rdf:RDF>
      <cc:Work
         rdf:about="">
        <dc:format>image/svg+xml</dc:format>
        <dc:type
           rdf:resource="http://purl.org/dc/dcmitype/StillImage" />
        <dc:title></dc:title>
      </cc:Work>
    </rdf:RDF>
  </metadata>
  <g
     inkscape:label="Layer 1"
     inkscape:groupmode="layer"
     id="layer1">
    <path
       d="M 21.746094 0 A 7.9999995 7.9999995 0 0 1 14 6 A 7.9999995 7.9999995 0 0 1 7.4921875 2.6503906 L 2.6503906 7.4921875 A 7.9999995 7.9999995 0 0 1 6 14 A 7.9999995 7.9999995 0 0 1 0 21.746094 L 0 27.753906 A 7.9999995 7.9999995 0 0 1 6 35.5 A 7.9999995 7.9999995 0 0 1 0 43.246094 L 0 49.253906 A 7.9999995 7.9999995 0 0 1 6 57 A 7.9999995 7.9999995 0 0 1 0 64.746094 L 0 70.753906 A 7.9999995 7.9999995 0 0 1 6 78.5 A 7.9999995 7.9999995 0 0 1 0 86.246094 L 0 92.253906 A 7.9999995 7.9999995 0 0 1 6 100 A 7.9999995 7.9999995 0 0 1 0 107.74609 L 0 113.75391 A 7.9999995 7.9999995 0 0 1 6 121.5 A 7.9999995 7.9999995 0 0 1 0 129.24609 L 0 135.25391 A 7.9999995 7.9999995 0 0 1 6 143 A 7.9999995 7.9999995 0 0 1 0 150.74609 L 0 156.75391 A 7.9999995 7.9999995 0 0 1 6 164.5 A 7.9999995 7.9999995 0 0 1 0 172.24609 L 0 178.25391 A 7.9999995 7.9999995 0 0 1 6 186 A 7.9999995 7.9999995 0 0 1 2.6503906 192.50781 L 7.4921875 197.34961 A 7.9999995 7.9999995 0 0 1 14 194 A 7.9999995 7.9999995 0 0 1 21.746094 200 L 27.753906 200 A 7.9999995 7.9999995 0 0 1 35.5 194 A 7.9999995 7.9999995 0 0 1 43.246094 200 L 49.253906 200 A 7.9999995 7.9999995 0 0 1 57 194 A 7.9999995 7.9999995 0 0 1 64.746094 200 L 70.753906 200 A 7.9999995 7.9999995 0 0 1 78.5 194 A 7.9999995 7.9999995 0 0 1 86.246094 200 L 92.253906 200 A 7.9999995 7.9999995 0 0 1 100 194 A 7.9999995 7.9999995 0 0 1 107.74609 200 L 113.75391 200 A 7.9999995 7.9999995 0 0 1 121.5 194 A 7.9999995 7.9999995 0 0 1 129.24609 200 L 135.25391 200 A 7.9999995 7.9999995 0 0 1 143 194 A 7.9999995 7.9999995 0 0 1 150.74609 200 L 156.75391 200 A 7.9999995 7.9999995 0 0 1 164.5 194 A 7.9999995 7.9999995 0 0 1 172.24609 200 L 178.25391 200 A 7.9999995 7.9999995 0 0 1 186 194 A 7.9999995 7.9999995 0 0 1 192.50781 197.34961 L 197.34961 192.50781 A 7.9999995 7.9999995 0 0 1 194 186 A 7.9999995 7.9999995 0 0 1 200 178.25391 L 200 172.24609 A 7.9999995 7.9999995 0 0 1 194 164.5 A 7.9999995 7.9999995 0 0 1 200 156.75391 L 200 150.74609 A 7.9999995 7.9999995 0 0 1 194 143 A 7.9999995 7.9999995 0 0 1 200 135.25391 L 200 129.24609 A 7.9999995 7.9999995 0 0 1 194 121.5 A 7.9999995 7.9999995 0 0 1 200 113.75391 L 200 107.74609 A 7.9999995 7.9999995 0 0 1 194 100 A 7.9999995 7.9999995 0 0 1 200 92.253906 L 200 86.246094 A 7.9999995 7.9999995 0 0 1 194 78.5 A 7.9999995 7.9999995 0 0 1 200 70.753906 L 200 64.746094 A 7.9999995 7.9999995 0 0 1 194 57 A 7.9999995 7.9999995 0 0 1 200 49.253906 L 200 43.246094 A 7.9999995 7.9999995 0 0 1 194 35.5 A 7.9999995 7.9999995 0 0 1 200 27.753906 L 200 21.746094 A 7.9999995 7.9999995 0 0 1 194 14 A 7.9999995 7.9999995 0 0 1 197.34961 7.4921875 L 192.50781 2.6503906 A 7.9999995 7.9999995 0 0 1 186 6 A 7.9999995 7.9999995 0 0 1 178.25391 0 L 172.24609 0 A 7.9999995 7.9999995 0 0 1 164.5 6 A 7.9999995 7.9999995 0 0 1 156.75391 0 L 150.74609 0 A 7.9999995 7.9999995 0 0 1 143 6 A 7.9999995 7.9999995 0 0 1 135.25391 0 L 129.24609 0 A 7.9999995 7.9999995 0 0 1 121.5 6 A 7.9999995 7.9999995 0 0 1 113.75391 0 L 107.74609 0 A 7.9999995 7.9999995 0 0 1 100 6 A 7.9999995 7.9999995 0 0 1 92.253906 0 L 86.246094 0 A 7.9999995 7.9999995 0 0 1 78.5 6 A 7.9999995 7.9999995 0 0 1 70.753906 0 L 64.746094 0 A 7.9999995 7.9999995 0 0 1 57 6 A 7.9999995 7.9999995 0 0 1 49.253906 0 L 43.246094 0 A 7.9999995 7.9999995 0 0 1 35.5 6 A 7.9999995 7.9999995 0 0 1 27.753906 0 L 21.746094 0 z "
       style="fill:#fafad2;stroke:#ffffff;stroke-width:0;stroke-opacity:0.7;fill-opacity:1"
       id="rect1012" />
    <path
       sodipodi:type="rect"
       d="M 18.000001,10.000001 H 182 a 8,8 45 0 1 8,8 L 190,182 a 8,8 135 0 1 -8,8 l -163.999999,0 a 8,8 45 0 1 -8,-8 V 18.000001 a 8,8 135 0 1 8,-8 z"
       inkscape:path-effect="#path-effect1408"
       style="fill:#d04b85;stroke:#ffffff;stroke-width:0;stroke-opacity:0.7;fill-opacity:1"
       id="rect1012-6"
       width="180"
       height="180"
       x="10.000001"
       y="10.000001" />
  </g>
</svg>
