<?xml version="1.0" encoding="UTF-8" standalone="no"?>
<svg
   xmlns:dc="http://purl.org/dc/elements/1.1/"
   xmlns:cc="http://creativecommons.org/ns#"
   xmlns:rdf="http://www.w3.org/1999/02/22-rdf-syntax-ns#"
   xmlns:svg="http://www.w3.org/2000/svg"
   xmlns="http://www.w3.org/2000/svg"
   xmlns:sodipodi="http://sodipodi.sourceforge.net/DTD/sodipodi-0.dtd"
   xmlns:inkscape="http://www.inkscape.org/namespaces/inkscape"
   width="400"
   height="72"
   viewBox="0 0 400 72"
   version="1.1"
   id="svg8"
   inkscape:version="1.0 (4035a4fb49, 2020-05-01)"
   sodipodi:docname="logo.svg">
  <defs
     id="defs2">
    <inkscape:path-effect
       effect="envelope"
       id="path-effect1019"
       is_visible="true"
       lpeversion="1"
       yy="true"
       xx="false"
       bendpath1="M 5.0974751e-7,-5 255.99777,1.1749268e-6"
       bendpath2="M 255.99777,1.1749268e-6 V 34.733034"
       bendpath3="M 5.0974751e-7,39.733 255.99777,34.733034"
       bendpath4="M 1.1358261e-6,1.1749268e-6 V 34.733034"
       bendpath1-nodetypes="cc"
       bendpath3-nodetypes="cc" />
    <inkscape:path-effect
       bendpath3-nodetypes="cc"
       bendpath1-nodetypes="cc"
       bendpath4="M 1.1358261e-6,1.1749268e-6 V 34.733034"
       bendpath3="M 5.0974751e-7,39.733 255.99777,34.733034"
       bendpath2="M 255.99777,1.1749268e-6 V 34.733034"
       bendpath1="M 5.0974751e-7,-5 255.99777,1.1749268e-6"
       xx="false"
       yy="true"
       lpeversion="1"
       is_visible="true"
       id="path-effect997"
       effect="envelope" />
    <inkscape:path-effect
       effect="envelope"
       id="path-effect919"
       is_visible="true"
       lpeversion="1"
       yy="true"
       xx="false"
       bendpath1="M 4.988399e-7,15.076028 256,8.4956213e-8"
       bendpath2="M 255.58413,25.398401 V 61.81129"
       bendpath3="M 4.988399e-7,101.04147 256,55.813384"
       bendpath4="M 1.246042,25.398401 V 61.81129"
       bendpath1-nodetypes="cc"
       bendpath3-nodetypes="cc" />
    <inkscape:path-effect
       bendpath3-nodetypes="cc"
       bendpath1-nodetypes="cc"
       bendpath4="M 1.246042,25.398401 V 61.81129"
       bendpath3="M 4.988399e-7,101.04147 256,55.813384"
       bendpath2="M 255.58413,25.398401 V 61.81129"
       bendpath1="M 4.988399e-7,15.076028 256,8.4956213e-8"
       xx="false"
       yy="true"
       lpeversion="1"
       is_visible="true"
       id="path-effect897"
       effect="envelope" />
    <inkscape:path-effect
       bendpath3-nodetypes="cc"
       bendpath2-nodetypes="cc"
       bendpath4-nodetypes="cc"
       bendpath1-nodetypes="cc"
       bendpath4="M 18.936408,29.688095 V 127.78733"
       bendpath3="M 18.936408,99.602097 239.65965,60.606437"
       bendpath2="m 239.65965,12.484127 v 63.69129"
       bendpath1="M 18.936408,25.482681 239.65965,12.484127"
       xx="false"
       yy="true"
       lpeversion="1"
       is_visible="true"
       id="path-effect856"
       effect="envelope" />
  </defs>
  <sodipodi:namedview
     inkscape:bbox-nodes="true"
     inkscape:snap-nodes="true"
     inkscape:object-nodes="true"
     inkscape:snap-others="false"
     inkscape:bbox-paths="false"
     inkscape:snap-bbox="true"
     inkscape:snap-page="true"
     id="base"
     pagecolor="#808080"
     bordercolor="#666666"
     borderopacity="1.0"
     inkscape:pageopacity="1"
     inkscape:pageshadow="2"
     inkscape:zoom="1.9317647"
     inkscape:cx="179.55845"
     inkscape:cy="112.80997"
     inkscape:document-units="px"
     inkscape:current-layer="layer1"
     inkscape:document-rotation="0"
     showgrid="false"
     units="px"
     inkscape:pagecheckerboard="true"
     inkscape:window-width="1920"
     inkscape:window-height="1001"
     inkscape:window-x="-9"
     inkscape:window-y="-9"
     inkscape:window-maximized="1" />
  <metadata
     id="metadata5">
    <rdf:RDF>
      <cc:Work
         rdf:about="">
        <dc:format>image/svg+xml</dc:format>
        <dc:type
           rdf:resource="http://purl.org/dc/dcmitype/StillImage" />
        <dc:title></dc:title>
      </cc:Work>
    </rdf:RDF>
  </metadata>
  <g
     inkscape:label="Layer 1"
     inkscape:groupmode="layer"
     id="layer1">
    <g
       transform="matrix(1.5446204,0,0,1.5446204,5.098792,6.361894)"
       id="g1041">
      <g
         inkscape:path-effect="#path-effect1019"
         style="font-style:normal;font-variant:normal;font-weight:bold;font-stretch:normal;font-size:44.644px;line-height:1.25;font-family:'Sansita Swashed';-inkscape-font-specification:'Sansita Swashed Bold';fill:#000000;fill-opacity:0.501961;stroke:none;stroke-width:1.1161"
         id="g1017"
         aria-label="Tic Tac Toe"
         transform="translate(-2.9996857,2.9997427)">
        <path
           inkscape:original-d="m 6.6073133,17.991534 q -2.2322001,0 -3.7054521,-0.937524 Q 1.4286092,16.116486 0.71430515,14.643234 1.1358261e-6,13.169981 1.1358261e-6,11.518153 q 0,-2.1429116 1.1161000641739,-4.2411797 1.160744,-2.142912 3.616164,-3.526876 2.5000641,-1.4286081 6.4287358,-1.4286081 2.857216,0 5.312637,0.401796 2.45542,0.357152 4.68762,0.7589481 2.2322,0.401796 4.375112,0.401796 1.964336,0 3.660808,-0.535728 1.741116,-0.5357281 3.12508,-1.8750481 1.071456,0.625016 1.607184,1.830404 0.535728,1.1607441 0.535728,2.5893521 0,1.428608 -0.66966,2.8125721 -0.625016,1.3839636 -1.964336,2.3214876 -1.294676,0.89288 -3.3483,0.89288 -2.946504,0 -5.223348,-0.89288 Q 20.982682,10.134189 19.28621,8.9288014 17.589738,7.7234133 16.38435,6.7858893 l -0.08929,-0.491084 q -0.848237,-0.357152 -1.473253,-0.357152 -0.580372,-0.044644 -1.205388,-0.044644 -2.098268,0 -3.437588,1.33932 -1.2946757,1.2946761 -1.2500317,3.9733157 0,1.294676 0.22322,2.45542 0.22322,1.160745 0.9821677,2.767929 -0.7143037,0.848236 -1.7411157,1.205388 -0.982168,0.357152 -1.78576,0.357152 z m 5.8483637,16.7415 q -1.919692,0 -3.4375877,-0.714304 -1.517896,-0.714304 -1.607184,-1.875048 0.758948,-0.312508 1.1161,-0.848236 0.401796,-0.580372 0.625016,-1.56254 0.22322,-0.982168 0.4910841,-2.633996 L 12.143169,14.152149 q 0.848236,-4.5090436 3.79474,-6.9198197 2.946505,-2.45542 8.348429,-3.080436 L 20.17909,26.65247 q -0.491084,2.589352 -1.294676,4.419756 -0.803592,1.78576 -2.321488,2.723284 -1.473253,0.937524 -4.107249,0.937524 z"
           id="path999"
           style="font-style:normal;font-variant:normal;font-weight:900;font-stretch:normal;font-family:'Sansita Swashed';-inkscape-font-specification:'Sansita Swashed Heavy';letter-spacing:4.4644px;fill:#000000;fill-opacity:0.501961;stroke-width:1.1161"
           d="M 6.268625,18.16682 C 4.7804916,18.167866 3.5445722,17.768308 2.5628435,16.965039 1.5811513,16.161799 0.85372151,15.127004 0.38351675,13.861345 -0.08666473,12.595748 -0.31515036,11.252614 -0.30066674,9.8343362 -0.28187728,7.9944188 0.11563375,6.1761328 0.89144055,4.3847457 1.6977546,2.5552448 2.9364559,1.0605282 4.6016169,-0.09774669 6.2980293,-1.2941459 8.4571234,-1.865603 11.076394,-1.8212835 c 1.904698,0.032229 3.67124,0.2329775 5.299224,0.5999255 1.629064,0.32919145 3.183548,0.67475616 4.663275,1.03659292 1.479738,0.36183935 2.934201,0.5525939 4.362748,0.57425528 1.30954,0.0198569 2.535204,-0.18647358 3.677374,-0.61686788 1.172112,-0.42999181 2.233601,-1.19647672 3.188145,-2.29746222 0.69947,0.5343085 1.213795,1.3063511 1.545529,2.31627588 0.332692,0.97278096 0.485951,2.05325002 0.461377,3.24295692 -0.02457,1.1896902 -0.268926,2.3579316 -0.733337,3.5067958 -0.434633,1.1491121 -1.10168,2.1113829 -2.003493,2.8876246 -0.871603,0.7391687 -1.99105,1.1058607 -3.360133,1.0974737 C 26.212694,10.514254 24.475221,10.129695 22.965588,9.3676995 21.456137,8.6057953 20.142929,7.7108147 19.027137,6.6825042 17.911802,5.6546142 16.95944,4.7371956 16.171103,3.934577 16.145235,3.7264153 16.119457,3.5182371 16.09377,3.3100425 15.534179,3.000696 15.046282,2.8430282 14.629553,2.8376718 14.243407,2.7948634 13.841988,2.7707411 13.425315,2.7653644 12.026649,2.7473163 10.868571,3.3008538 9.9551856,4.4305971 9.0727562,5.5220523 8.6273308,7.2116468 8.6323515,9.4937212 c -0.011958,1.1029328 0.053617,2.1493768 0.1959793,3.1386318 0.1423303,0.989038 0.4640828,2.169323 0.967717,3.537388 -0.4773866,0.721341 -1.0575884,1.234588 -1.7420234,1.539216 -0.654661,0.304615 -1.2496237,0.457487 -1.7854014,0.457863 7e-7,0 1.3e-6,0 2e-6,0 z m 6.187051,21.322905 c -1.279794,0.025 -2.435147,-0.256049 -3.4649109,-0.845574 C 7.9610296,38.054642 7.4025662,37.264273 7.317316,36.274986 7.8163578,35.999993 8.1791226,35.632405 8.4060363,35.172121 8.6618209,34.673245 8.8542381,34.004694 8.9848519,33.166003 9.1157418,32.325539 9.2558084,31.205517 9.4104844,29.795391 10.149384,24.274988 10.951109,18.766718 11.815659,13.270584 12.40288,9.4421877 13.713299,6.5149471 15.714264,4.4962365 17.716755,2.4388566 20.529682,1.1799721 24.143568,0.70820387 22.551593,10.142566 21.149378,19.611574 19.936922,29.115227 c -0.291407,2.187976 -0.682122,4.057415 -1.180413,5.611897 -0.499034,1.516238 -1.240372,2.68038 -2.229211,3.492399 -0.958833,0.811263 -2.315702,1.235906 -4.071622,1.270202 z" />
        <path
           inkscape:original-d="m 41.088525,34.643746 q -2.410776,0 -4.01796,-1.205388 -1.56254,-1.250032 -1.56254,-3.79474 0,-0.937524 0.178576,-2.45542 0.22322,-1.56254 0.535728,-3.259012 0.312508,-1.741116 0.625016,-3.259012 0.312508,-1.56254 0.491084,-2.500064 l 1.383964,-7.187685 9.955612,-0.982168 -3.214368,16.607569 q -0.04464,0.357152 -0.133932,0.89288 -0.08929,0.491084 -0.08929,0.982168 0,0.89288 0.535728,1.696472 0.535728,0.758948 1.741116,0.848236 -0.580372,1.875048 -2.500064,2.723284 -1.875048,0.89288 -3.928672,0.89288 z M 45.017197,7.5001933 q -2.2322,0 -3.705452,-0.937524 -1.473252,-0.937524 -1.473252,-2.723284 0,-1.8304041 1.56254,-2.8125721 1.56254,-1.0268120250732 3.79474,-1.0268120250732 2.187556,0 3.57152,0.9821680250732 1.383964,0.982168 1.383964,2.7679281 0,1.830404 -1.473252,2.812572 -1.473252,0.937524 -3.660808,0.937524 z"
           id="path1001"
           style="font-style:normal;font-variant:normal;font-weight:900;font-stretch:normal;font-family:'Sansita Swashed';-inkscape-font-specification:'Sansita Swashed Heavy';letter-spacing:4.4644px;fill:#000000;fill-opacity:0.501961;stroke-width:1.1161"
           d="m 41.085046,38.819619 c -1.607116,0.03123 -2.962455,-0.441836 -4.063161,-1.424103 -1.071501,-1.019416 -1.636663,-2.590261 -1.683504,-4.707498 -0.01724,-0.779349 0.02091,-1.802935 0.117562,-3.066275 0.125796,-1.301349 0.284052,-2.658492 0.475687,-4.070466 0.191162,-1.448841 0.388094,-2.805099 0.58886,-4.06687 0.2045,-1.324476 0.357789,-2.31259 0.479538,-3.116695 0.456991,-2.985502 0.933347,-5.967275 1.429066,-8.9453191 3.323238,-0.3835632 6.646837,-0.7634607 9.970798,-1.1396926 -1.163162,6.8177387 -2.222947,13.6554907 -3.179353,20.5132537 -0.02483,0.294981 -0.06307,0.663181 -0.114479,1.105822 -0.05207,0.405635 -0.07401,0.810998 -0.06582,1.215988 0.01488,0.736353 0.208787,1.433627 0.581375,2.090866 0.371779,0.620524 0.960981,0.960899 1.766366,1.022032 -0.348474,1.548904 -1.148941,2.684532 -2.40806,3.407877 -1.228054,0.759501 -2.525689,1.154476 -3.894876,1.18108 10e-7,0 2e-6,0 2e-6,0 z M 44.787528,5.1590919 C 43.299394,5.1425791 42.070848,4.7419467 41.103866,3.9540879 40.137021,3.1663413 39.6689,2.0309059 39.70512,0.5508594 c 0.03712,-1.51707353 0.591373,-2.6740403 1.656996,-3.4676077 1.067013,-0.8307404 2.345554,-1.2295786 3.833656,-1.2005139 1.458371,0.028484 2.63573,0.4564472 3.534246,1.2808319 0.89864,0.824498 1.327044,1.96820202 1.290591,3.43422355 C 49.983245,2.1004335 49.468334,3.247973 48.470126,4.043593 47.472772,4.8024058 46.245898,5.1752744 44.787528,5.1590919 Z" />
        <path
           inkscape:original-d="m 63.860454,34.643746 q -4.330468,0 -7.009108,-2.276844 -2.67864,-2.276844 -2.67864,-7.276972 0,-3.303656 1.071456,-6.02694 1.071456,-2.767928 3.080436,-4.776909 2.00898,-2.00898 4.776908,-3.080436 2.812572,-1.1161 6.25016,-1.1161 2.098268,0 3.79474,0.44644 1.696472,0.44644 2.67864,1.517896 1.026812,1.026812 1.026812,2.901861 0,2.45542 -1.696472,3.526876 -1.696472,1.071456 -4.01796,1.071456 -0.357152,0 -0.982168,-0.04464 -0.625016,-0.08929 -1.026812,-0.267864 0.357152,-0.937524 0.580372,-2.321488 0.267864,-1.428608 0.267864,-2.45542 0,-0.714305 -0.178576,-1.205389 -0.178576,-0.535728 -0.937524,-0.535728 -1.026812,0 -1.875048,0.89288 -0.848236,0.892881 -1.517896,2.321489 -0.625016,1.383964 -1.071456,3.035792 -0.44644,1.651828 -0.714304,3.214368 -0.22322,1.517896 -0.22322,2.589352 0,1.78576 0.714304,2.767928 0.714304,0.982168 2.544708,0.982168 1.696472,0 3.3483,-0.848236 1.651828,-0.89288 2.366132,-2.544708 0.937524,0.535728 1.33932,1.205388 0.401796,0.625016 0.401796,1.651828 0,2.187556 -1.517896,3.660808 -1.517896,1.473252 -3.884028,2.2322 -2.366132,0.758948 -4.91084,0.758948 z"
           id="path1003"
           style="font-style:normal;font-variant:normal;font-weight:900;font-stretch:normal;font-family:'Sansita Swashed';-inkscape-font-specification:'Sansita Swashed Heavy';letter-spacing:4.4644px;fill:#000000;fill-opacity:0.501961;stroke-width:1.1161"
           d="m 63.856975,38.377141 c -2.88672,0.05609 -5.254066,-0.822154 -7.091744,-2.650598 -1.836965,-1.827735 -2.80668,-4.793487 -2.864578,-8.883538 -0.03825,-2.702276 0.300302,-5.170405 1.007618,-7.397001 0.707264,-2.263275 1.739271,-4.212331 3.08787,-5.844762 1.348674,-1.632522 2.953823,-2.875722 4.808917,-3.7321619 1.885633,-0.8926242 3.975257,-1.3258328 6.267025,-1.3070766 1.398778,0.011448 2.661353,0.2018187 3.787658,0.5693049 1.126423,0.3675249 2.011729,0.9831696 2.657914,1.8460486 0.676363,0.827341 1.008388,1.990769 1.001611,3.492656 -0.0089,1.966587 -0.57206,3.378315 -1.701607,4.239591 -1.129024,0.860877 -2.46627,1.295452 -4.013979,1.29926 -0.238076,5.85e-4 -0.565591,-0.01658 -0.982386,-0.05155 -0.416972,-0.07097 -0.759647,-0.178175 -1.028022,-0.321685 0.235529,-0.757076 0.426877,-1.693026 0.576643,-2.809089 0.179563,-1.152057 0.27264,-2.141007 0.277108,-2.968983 0.0031,-0.575854 -0.05304,-1.061864 -0.169076,-1.458393 -0.115736,-0.432435 -0.426249,-0.650169 -0.932253,-0.652811 -0.684416,-0.0036 -1.312939,0.353458 -1.883474,1.072892 -0.570419,0.719288 -1.081953,1.656865 -1.531415,2.812537 -0.419613,1.119604 -0.777214,2.349252 -1.070846,3.688241 -0.293642,1.339032 -0.523791,2.642948 -0.691068,3.910892 -0.137808,1.231312 -0.199505,2.282596 -0.187604,3.151262 0.01984,1.44821 0.277981,2.568728 0.76905,3.359119 0.491319,0.790793 1.348058,1.177432 2.568275,1.162116 1.130981,-0.0142 2.239715,-0.371127 3.327819,-1.067639 1.087494,-0.732553 1.857458,-1.764857 2.314396,-3.097501 0.631249,0.425421 1.085146,0.905508 1.362011,1.440721 0.276303,0.499425 0.421841,1.161007 0.438198,1.985556 0.03485,1.756509 -0.434879,3.232729 -1.415352,4.433795 -0.980375,1.200946 -2.248083,2.122819 -3.806709,2.764628 -1.558567,0.641784 -3.185479,0.981213 -4.882,1.014178 0,-2e-6 0,-3e-6 0,-5e-6 z" />
        <path
           inkscape:original-d="m 99.710285,17.679026 q -2.053624,0 -3.437588,-0.89288 -1.33932,-0.89288 -2.00898,-2.321488 -0.66966,-1.428609 -0.66966,-3.080437 0.04464,-2.1429116 1.160744,-4.1965357 1.1161,-2.098268 3.482232,-3.482232 2.410777,-1.3839641 6.205517,-1.3839641 2.76793,0 5.13406,0.401796 2.41078,0.357152 4.59833,0.7589481 2.18756,0.401796 4.33047,0.401796 1.91969,0 3.52688,-0.491084 1.65182,-0.4910841 2.99114,-1.7857601 0.93753,0.580372 1.38397,1.651828 0.49108,1.0714561 0.49108,2.3214881 0,1.33932 -0.62501,2.6339961 -0.58038,1.294676 -1.83041,2.1429116 -1.25003,0.848236 -3.21437,0.848236 -2.63399,0 -4.73226,-0.803592 -2.05362,-0.8035916 -3.70545,-1.8750476 -1.65183,-1.0714561 -2.94651,-1.9643361 l -0.0893,-0.44644 q -0.93753,-0.357152 -1.65183,-0.401796 -0.66966,-0.089288 -1.42861,-0.089288 -2.18756,0 -3.57152,1.383964 -1.33932,1.3839641 -1.33932,4.1518917 0,1.294676 0.22322,2.45542 0.26786,1.160745 0.98217,2.678641 -0.66966,0.758948 -1.60719,1.071456 -0.93752,0.312508 -1.651825,0.312508 z m 5.714435,17.054008 q -1.69648,0 -3.08044,-0.625016 -1.33932,-0.625016 -1.47325,-1.696472 0.7143,-0.312508 1.07145,-0.848236 0.4018,-0.580372 0.62502,-1.517896 0.26786,-0.937524 0.53573,-2.500064 l 2.67864,-13.973573 q 0.80359,-4.2411796 3.43759,-6.4733797 2.63399,-2.276844 7.58948,-2.812572 l -4.28583,23.0809487 q -0.44644,2.410776 -1.20538,4.062604 -0.75895,1.607184 -2.14292,2.45542 -1.38396,0.848236 -3.75009,0.848236 z"
           id="path1005"
           style="font-style:normal;font-variant:normal;font-weight:800;font-stretch:normal;font-family:'Sansita Swashed';-inkscape-font-specification:'Sansita Swashed Ultra-Bold';letter-spacing:2.2322px;fill:#000000;fill-opacity:0.501961;stroke-width:1.1161"
           d="m 99.371267,17.733945 c -1.369082,4.81e-4 -2.515453,-0.349281 -3.437319,-1.052065 -0.892063,-0.702734 -1.559651,-1.617931 -1.99989,-2.745067 -0.440215,-1.127077 -0.653702,-2.342901 -0.638887,-3.645259 0.04898,-1.6893566 0.461597,-3.3409024 1.237005,-4.9497384 0.776159,-1.6441495 1.969835,-2.9981163 3.575578,-4.0602087 1.636079,-1.06200696 3.720176,-1.56732456 6.250186,-1.52451531 1.84517,0.0312212 3.5522,0.21691244 5.12065,0.55483224 1.5993,0.30377005 3.12403,0.62237901 4.57399,0.95573017 1.44999,0.3333573 2.88954,0.5098855 4.3181,0.5315471 1.27975,0.019405 2.46038,-0.1517456 3.54204,-0.5115943 1.11161,-0.35944505 2.12739,-1.02737847 3.05085,-2.00179715 0.61134,0.45501521 1.05353,1.09398558 1.32849,1.91710235 0.30473,0.8236043 0.44558,1.7119904 0.42349,2.6663418 -0.0237,1.0225146 -0.25259,2.0252449 -0.68702,3.0099988 -0.40467,0.9850193 -1.02707,1.7985196 -1.86936,2.4411232 -0.84226,0.6425879 -1.91737,0.9605372 -3.22693,0.9514632 -1.75605,-0.01217 -3.32976,-0.3316408 -4.7204,-0.9624575 -1.36072,-0.6305168 -2.58506,-1.3657322 -3.67213,-2.2060634 -1.08672,-0.8400631 -2.05476,-1.6131723 -2.90312,-2.3165109 -0.0262,-0.1736358 -0.0522,-0.3472866 -0.0782,-0.5209523 -0.61903,-0.2851887 -1.166,-0.4485686 -1.64148,-0.4895271 -0.44487,-0.075275 -0.9203,-0.1163229 -1.42626,-0.1230042 -1.4582,-0.019256 -2.6616,0.5040218 -3.60591,1.5747797 -0.91437,1.0708938 -1.39089,2.6911095 -1.41665,4.8564777 -0.012,1.012819 0.0535,1.973808 0.19574,2.882279 0.17201,0.908447 0.49393,1.957268 0.96764,3.143789 -0.44765,0.592495 -0.98343,1.011276 -1.60848,1.255858 -0.62504,0.244585 -1.175457,0.36727 -1.651713,0.367438 z m 6.053453,19.939975 c -1.13099,0.02209 -2.16608,-0.201548 -3.10441,-0.672859 -0.90854,-0.471857 -1.42042,-1.127205 -1.53389,-1.964707 0.46916,-0.252744 0.81687,-0.59051 1.04356,-1.01333 0.25555,-0.458285 0.44815,-1.054764 0.57915,-1.789798 0.16093,-0.736208 0.31664,-1.713942 0.47147,-2.937598 0.78626,-5.469015 1.6457,-10.923998 2.57833,-16.364949 0.55986,-3.3028404 1.74959,-5.8137942 3.53996,-7.5273028 1.79184,-1.7489677 4.34892,-2.8007212 7.66332,-3.1652061 -1.65493,8.8769929 -3.11019,17.7910709 -4.36578,26.7422319 -0.26154,1.870272 -0.62416,3.448352 -1.09545,4.737208 -0.47208,1.253801 -1.15685,2.218756 -2.05849,2.894764 -0.90142,0.67585 -2.14043,1.030738 -3.71777,1.061546 z" />
        <path
           inkscape:original-d="m 128.85374,34.643746 q -2.50006,0 -4.15189,-1.071456 -1.60718,-1.1161 -2.41078,-3.080436 -0.75894,-1.964336 -0.75894,-4.642976 0,-3.392944 1.02681,-6.25016 1.07145,-2.857216 2.9465,-5.000128 1.87505,-2.142913 4.37512,-3.303657 2.50006,-1.205388 5.35728,-1.205388 2.32148,0 4.7769,0.848236 l 7.00911,-0.848236 -3.21437,17.009365 q -0.0446,0.357152 -0.13393,0.89288 -0.0893,0.535728 -0.0893,0.982168 0,0.848236 0.49109,1.56254 0.49108,0.714304 1.60718,0.803592 -0.35715,1.1161 -1.29467,1.875048 -0.89288,0.714304 -2.09827,1.071456 -1.16075,0.357152 -2.27685,0.357152 -1.47325,0 -2.72328,-0.625016 -1.25003,-0.625016 -1.74112,-1.919692 -1.16074,1.160744 -2.85721,1.830404 -1.65183,0.714304 -3.83939,0.714304 z m 2.81258,-2.857216 q 1.16074,0 1.91969,-0.89288 0.80359,-0.937524 1.20539,-2.2322 0.44644,-1.294676 0.62501,-2.45542 l 2.2322,-12.634253 q -0.58037,-0.401796 -1.20539,-0.580372 -0.58037,-0.22322 -1.07145,-0.22322 -1.25003,0 -2.18756,1.1161 -0.93752,1.071457 -1.60718,2.901861 -0.62502,1.830404 -1.02681,3.973316 -0.35716,2.098268 -0.53573,4.151892 -0.13393,2.053624 -0.13393,3.616164 0,1.160744 0.3125,2.2322 0.31251,1.026812 1.47326,1.026812 z"
           id="path1007"
           style="font-style:normal;font-variant:normal;font-weight:800;font-stretch:normal;font-family:'Sansita Swashed';-inkscape-font-specification:'Sansita Swashed Ultra-Bold';letter-spacing:2.2322px;fill:#000000;fill-opacity:0.501961;stroke-width:1.1161"
           d="m 128.85026,37.114265 c -1.66671,0.03239 -3.06498,-0.349286 -4.19223,-1.148995 -1.09845,-0.834318 -1.93797,-2.001107 -2.51237,-3.499715 -0.54452,-1.498742 -0.83769,-3.278273 -0.87175,-5.333919 -0.0431,-2.603966 0.27658,-5.005716 0.95151,-7.197935 0.70472,-2.192435 1.69069,-4.107097 2.94951,-5.741338 1.25895,-1.634414 2.73083,-2.886496 4.40795,-3.758623 1.67783,-0.9062728 3.47068,-1.3481018 5.37538,-1.3325135 1.54784,0.012668 3.135,0.3468635 4.76382,0.9979755 2.34046,-0.3027344 4.68119,-0.6032401 7.02219,-0.9015169 -1.16425,6.3558979 -2.22005,12.7322929 -3.16741,19.1291849 -0.0245,0.268643 -0.0625,0.603984 -0.11349,1.007138 -0.051,0.40297 -0.0725,0.772162 -0.0648,1.107405 0.0148,0.636989 0.19313,1.22152 0.53463,1.752809 0.34153,0.531365 0.88579,0.824269 1.6317,0.879484 -0.21471,0.8401 -0.62479,1.550119 -1.23179,2.130751 -0.57828,0.546586 -1.26426,0.962033 -2.05879,1.245874 -0.76479,0.283279 -1.51902,0.432608 -2.26312,0.447066 -0.98214,0.01908 -1.89812,-0.198817 -2.74712,-0.655542 -0.8489,-0.456665 -1.45286,-1.172455 -1.80887,-2.14713 -0.74815,0.891429 -1.67844,1.602157 -2.7928,2.131577 -1.08334,0.562681 -2.35388,0.859627 -3.81221,0.887963 z m 2.71075,-3.311392 c 0.77392,-0.01255 1.40382,-0.362102 1.89163,-1.046936 0.51674,-0.71925 0.89714,-1.570635 1.14308,-2.554821 0.27571,-0.98458 0.46576,-1.916359 0.56942,-2.796346 0.66035,-4.789935 1.38053,-9.569298 2.16053,-14.338089 -0.38463,-0.305171 -0.78453,-0.52644 -1.20005,-0.663552 -0.38546,-0.17073 -0.7418,-0.257082 -1.0692,-0.258775 -0.83317,-0.0043 -1.56681,0.414488 -2.1977,1.258946 -0.63045,0.810309 -1.17246,1.911067 -1.62044,3.301626 -0.41824,1.390637 -0.7573,2.902137 -1.01424,4.533222 -0.22743,1.597105 -0.38885,3.178141 -0.48467,4.742209 -0.066,1.563123 -0.084,2.941478 -0.0579,4.130212 0.0194,0.883588 0.14428,1.731874 0.37413,2.544104 0.22901,0.778423 0.73169,1.160748 1.50538,1.1482 z" />
        <path
           inkscape:original-d="m 159.95318,34.643746 q -4.24118,0 -6.78589,-2.2322 -2.50006,-2.276844 -2.50006,-7.187684 0,-3.214368 0.98216,-5.937652 1.02682,-2.767928 2.94651,-4.821552 1.91969,-2.098269 4.64297,-3.214369 2.72329,-1.160744 6.07159,-1.160744 2.05362,0 3.70545,0.491084 1.65183,0.44644 2.58935,1.517896 0.98217,1.026812 0.98217,2.812573 0,2.366132 -1.60718,3.437588 -1.56254,1.026812 -3.70546,1.026812 -0.40179,0 -1.02681,-0.08929 -0.58037,-0.08929 -0.98217,-0.267864 0.35716,-0.89288 0.58038,-2.187556 0.22322,-1.294676 0.22322,-2.276844 0,-0.758949 -0.26787,-1.294677 -0.22322,-0.535728 -1.02681,-0.535728 -1.07146,0 -1.96434,0.89288 -0.89288,0.892881 -1.60718,2.321489 -0.66966,1.428608 -1.16074,3.080436 -0.44644,1.651828 -0.71431,3.259012 -0.22322,1.56254 -0.22322,2.67864 0,1.875048 0.75895,2.991148 0.75895,1.071456 2.67864,1.071456 1.74112,0 3.3483,-0.937524 1.60718,-0.937524 2.32149,-2.633996 0.89288,0.44644 1.29467,1.1161 0.4018,0.625016 0.4018,1.607184 0,2.053624 -1.47325,3.526876 -1.42861,1.428608 -3.70545,2.187556 -2.2322,0.758948 -4.77691,0.758948 z"
           id="path1009"
           style="font-style:normal;font-variant:normal;font-weight:800;font-stretch:normal;font-family:'Sansita Swashed';-inkscape-font-specification:'Sansita Swashed Ultra-Bold';letter-spacing:2.2322px;fill:#000000;fill-opacity:0.501961;stroke-width:1.1161"
           d="m 159.9497,36.509976 c -2.82728,0.05494 -5.11943,-0.726253 -6.86702,-2.358496 -1.71806,-1.665238 -2.62731,-4.335119 -2.68516,-7.996839 -0.0379,-2.396714 0.27,-4.613291 0.91689,-6.643151 0.67658,-2.063318 1.6631,-3.856734 2.95183,-5.377773 1.28901,-1.554304 2.8499,-2.736499 4.67557,-3.549006 1.82646,-0.8456845 3.85683,-1.2556344 6.08907,-1.2373654 1.36901,0.011204 2.60157,0.2016672 3.69768,0.5694501 1.09668,0.3351463 1.95223,0.8959213 2.56878,1.6817253 0.64667,0.753392 0.96432,1.780047 0.95774,3.082233 -0.009,1.725236 -0.54268,2.977821 -1.61287,3.761837 -1.04003,0.751033 -2.27335,1.130135 -3.70201,1.133363 -0.26783,6.05e-4 -0.61029,-0.03135 -1.0272,-0.09598 -0.38718,-0.0647 -0.71493,-0.162373 -0.98325,-0.293077 0.23595,-0.656579 0.42776,-1.459759 0.57764,-2.41043 0.14987,-0.950659 0.22765,-1.78585 0.23179,-2.506986 0.003,-0.557148 -0.0825,-1.032628 -0.2578,-1.426856 -0.14549,-0.39401 -0.48578,-0.592636 -1.02154,-0.595434 -0.71418,-0.0037 -1.37246,0.321042 -1.97276,0.9762 -0.60019,0.65503 -1.14148,1.509111 -1.6207,2.562208 -0.44948,1.053179 -0.83668,2.190372 -1.15997,3.411001 -0.29353,1.220606 -0.52351,2.425735 -0.69026,3.614659 -0.13728,1.155492 -0.19826,2.146914 -0.18557,2.971767 0.0213,1.386187 0.2965,2.489743 0.82006,3.308066 0.52312,0.785746 1.4257,1.168967 2.70543,1.152197 1.16088,-0.01521 2.26836,-0.375166 3.32472,-1.07641 1.05648,-0.70132 1.8102,-1.675125 2.26582,-2.922021 0.60066,0.3216 1.03928,0.725827 1.31636,1.2129 0.27651,0.454478 0.42203,1.040449 0.43794,1.758637 0.0333,1.501552 -0.42299,2.7973 -1.37357,3.892094 -0.92171,1.061546 -2.13047,1.88572 -3.62957,2.471818 -1.46934,0.585546 -3.0516,0.896706 -4.74807,0.92967 0,0 0,10e-7 0,2e-6 z" />
        <path
           inkscape:original-d="m 190.86007,17.321874 q -1.87505,0 -3.12508,-0.803592 -1.25003,-0.848236 -1.87505,-2.232201 -0.62501,-1.383964 -0.58037,-3.035792 0,-2.0982676 1.07146,-4.1518917 1.1161,-2.053624 3.43758,-3.392944 2.36614,-1.3839641 5.9823,-1.3839641 2.67864,0 5.00013,0.401796 2.36613,0.357152 4.50904,0.7589481 2.14291,0.401796 4.24118,0.401796 1.83041,0 3.39295,-0.44644 1.56254,-0.4464401 2.85721,-1.6964721 0.80359,0.535728 1.20539,1.517896 0.4018,0.9375241 0.4018,2.0536241 0,1.205388 -0.58038,2.410776 -0.53572,1.2053881 -1.74111,2.0089801 -1.16075,0.7589476 -2.99115,0.7589476 -2.32149,0 -4.24118,-0.6696596 -1.91969,-0.714304 -3.52688,-1.651828 -1.56254,-0.9821681 -2.9465,-1.8304041 l -0.0893,-0.401796 q -0.98217,-0.401796 -1.78576,-0.491084 -0.80359,-0.089288 -1.69647,-0.089288 -2.32149,0 -3.70545,1.473252 -1.38397,1.4286081 -1.38397,4.2858237 -0.0446,1.294676 0.17858,2.500064 0.26786,1.160745 0.98217,2.544709 -0.62502,0.625016 -1.47325,0.89288 -0.84824,0.267864 -1.5179,0.267864 z m 5.62514,17.41116 q -1.51789,0 -2.72328,-0.580372 -1.20539,-0.535728 -1.38396,-1.473252 0.66966,-0.312508 1.07145,-0.848236 0.4018,-0.580372 0.62502,-1.473252 0.26786,-0.937524 0.49108,-2.410776 l 2.90186,-14.955741 q 0.75895,-3.9733156 3.08044,-6.0269397 2.36613,-2.098268 6.83053,-2.544708 l -4.4644,23.6613207 q -0.4018,2.187556 -1.1161,3.660808 -0.7143,1.473252 -1.96434,2.2322 -1.25003,0.758948 -3.3483,0.758948 z"
           id="path1011"
           style="fill:#000000;fill-opacity:0.501961;stroke-width:1.1161"
           d="m 190.52095,17.318599 c -1.25004,-6.3e-5 -2.29195,-0.287791 -3.12428,-0.865443 -0.83223,-0.60967 -1.45489,-1.413168 -1.86519,-2.410068 -0.41028,-0.996865 -0.59388,-2.090652 -0.54897,-3.27925 0.0192,-1.5101001 0.40203,-3.001661 1.14795,-4.4697332 0.77568,-1.4677284 1.95379,-2.6703056 3.52887,-3.6058934 1.60631,-0.9674307 3.61603,-1.4265883 6.02697,-1.3857938 1.78565,0.030214 3.44802,0.2013965 4.98672,0.511357 1.56953,0.2788595 3.0645,0.5710558 4.4847,0.8764963 1.42022,0.3054467 2.83001,0.4678141 4.22881,0.4890244 1.22023,0.018503 2.35577,-0.1209161 3.40671,-0.4166238 1.05102,-0.2957295 2.02119,-0.8725742 2.91359,-1.7284627 0.52321,0.3827493 0.90755,0.9179365 1.15464,1.6056917 0.24804,0.6567107 0.36156,1.3728086 0.34139,2.1491947 -0.0218,0.8384946 -0.23485,1.6743666 -0.6392,2.5091895 -0.37455,0.835103 -0.96733,1.529096 -1.78013,2.0825991 -0.78238,0.5225228 -1.7833,0.7801992 -3.00354,0.7707642 -1.54771,-0.01197 -2.95797,-0.2571969 -4.23032,-0.7387343 -1.27174,-0.5128744 -2.43721,-1.1053348 -3.49578,-1.7777998 -1.02876,-0.7040389 -1.99565,-1.3612772 -2.90488,-1.9733738 -0.0264,-0.1425324 -0.0528,-0.2850783 -0.0791,-0.4276376 -0.64794,-0.2927878 -1.23868,-0.4747554 -1.77287,-0.5452543 -0.53412,-0.070489 -1.09883,-0.1098373 -1.69407,-0.1178768 -1.54749,-0.020901 -2.79665,0.4859088 -3.7428,1.5258058 -0.94521,1.0078005 -1.43809,2.5341397 -1.46486,4.5745708 -0.0419,0.924358 0.008,1.817554 0.15047,2.678819 0.17203,0.829456 0.4943,1.738984 0.96799,2.72671 -0.4178,0.445225 -0.90915,0.763609 -1.47478,0.954769 -0.56564,0.191163 -1.07152,0.286975 -1.518,0.286953 0,0 0,0 1e-5,0 z m 5.96426,18.576792 c -1.01193,0.01976 -1.92737,-0.16898 -2.74557,-0.567805 -0.81706,-0.366973 -1.29655,-0.884781 -1.43713,-1.552537 0.43927,-0.230935 0.78681,-0.539734 1.04305,-0.926358 0.2553,-0.418529 0.4481,-0.947108 0.57953,-1.58602 0.16042,-0.671598 0.30169,-1.532274 0.42718,-2.584512 0.84867,-5.341189 1.78117,-10.666108 2.79751,-15.974757 0.53203,-2.8207535 1.60089,-4.9512787 3.18058,-6.3876345 1.61088,-1.4682963 3.91218,-2.3333593 6.89734,-2.603944 -1.71777,8.2967065 -3.2257,16.6330135 -4.52379,25.0089215 -0.23277,1.54895 -0.56823,2.847343 -1.01282,3.897406 -0.44445,1.049736 -1.07211,1.851466 -1.88657,2.404956 -0.81428,0.553368 -1.92054,0.844964 -3.31931,0.872284 z" />
        <path
           inkscape:original-d="m 219.09323,34.643746 q -2.2322,0 -3.97332,-0.625016 -1.74112,-0.580372 -2.90186,-1.741116 -1.16074,-1.205388 -1.74112,-2.857216 -0.58037,-1.651828 -0.58037,-3.750096 0,-3.214368 0.89288,-6.02694 0.89288,-2.857216 2.634,-5.000128 1.74111,-2.142913 4.28582,-3.348301 2.58935,-1.205388 5.93765,-1.205388 2.27685,0 3.97332,0.625016 1.74112,0.580372 2.85722,1.741116 1.16074,1.160744 1.74111,2.812573 0.58037,1.607184 0.58037,3.660808 0,3.214368 -0.89288,6.071584 -0.89288,2.812572 -2.67864,5.000128 -1.74111,2.187556 -4.28582,3.437588 -2.54471,1.205388 -5.84836,1.205388 z m 0.7143,-2.67864 q 1.1161,0 2.00898,-1.026812 0.89288,-1.071456 1.5179,-2.812572 0.66966,-1.78576 1.07145,-3.884028 0.44644,-2.098268 0.62502,-4.196536 0.22322,-2.142912 0.22322,-3.884028 0,-1.517896 -0.49109,-2.455421 -0.49108,-0.937524 -1.8304,-0.937524 -1.16074,0 -2.09827,1.071456 -0.89288,1.026813 -1.56254,2.767929 -0.62501,1.696472 -1.02681,3.79474 -0.4018,2.098268 -0.62502,4.24118 -0.17857,2.098268 -0.17857,3.928672 0,1.473252 0.49108,2.45542 0.53573,0.937524 1.87505,0.937524 z"
           id="path1013"
           style="fill:#000000;fill-opacity:0.501961;stroke-width:1.1161"
           d="m 219.08975,35.360833 c -1.48822,0.02892 -2.82065,-0.162394 -3.99716,-0.576545 -1.17524,-0.382964 -2.16388,-0.973544 -2.96366,-1.772498 -0.80074,-0.830148 -1.41097,-1.821927 -1.82775,-2.974293 -0.41673,-1.152245 -0.64009,-2.465348 -0.66621,-3.936664 -0.04,-2.253985 0.23555,-4.369904 0.82117,-6.341711 0.5855,-2.003182 1.46702,-3.752829 2.63651,-5.246286 1.16957,-1.493556 2.61158,-2.652787 4.31893,-3.479357 1.73757,-0.826579 3.72346,-1.226968 5.95575,-1.2086986 1.51779,0.012422 2.83896,0.2391136 3.96353,0.6774816 1.15496,0.407947 2.09906,1.012315 2.83458,1.812464 0.76532,0.800358 1.33723,1.765834 1.71894,2.897407 0.3819,1.101132 0.57336,2.352828 0.57817,3.757691 0.008,2.198846 -0.26752,4.276047 -0.83009,6.237662 -0.56306,1.93095 -1.41555,3.654381 -2.56469,5.173667 -1.11924,1.518684 -2.50841,2.725373 -4.17486,3.618552 -1.66709,0.862151 -3.60079,1.318334 -5.80316,1.361128 z m 0.61829,-2.801544 c 0.74423,-0.01222 1.40213,-0.379367 1.97646,-1.099269 0.57358,-0.751015 1.05231,-1.730502 1.44095,-2.93906 0.41766,-1.239736 0.74819,-2.584298 0.99443,-4.034993 0.276,-1.450848 0.46931,-2.8996 0.57994,-4.347522 0.14024,-1.479139 0.21364,-2.817771 0.21679,-4.018995 0.003,-1.046992 -0.15535,-1.893894 -0.47766,-2.542341 -0.32217,-0.648171 -0.92872,-0.975306 -1.82169,-0.979924 -0.77365,-0.004 -1.47734,0.362858 -2.10806,1.102977 -0.60053,0.709075 -1.12751,1.667899 -1.57588,2.876058 -0.41855,1.177187 -0.7588,2.495966 -1.01709,3.954984 -0.25832,1.45915 -0.45041,2.934885 -0.57584,4.426371 -0.0962,1.460049 -0.12767,2.827463 -0.0969,4.100491 0.0247,1.024712 0.21227,1.876659 0.55973,2.554348 0.37644,0.646429 1.01204,0.961533 1.90484,0.946875 z" />
        <path
           inkscape:original-d="m 243.8546,34.643746 q -2.72328,0 -4.82155,-0.982168 -2.05363,-0.982168 -3.21437,-2.991148 -1.16074,-2.053624 -1.16074,-5.223348 0,-2.90186 0.80359,-5.625144 0.84823,-2.723284 2.54471,-4.91084 1.74111,-2.232201 4.41975,-3.526877 2.67864,-1.294676 6.33945,-1.294676 1.91969,0 3.52688,0.491084 1.65182,0.44644 2.67864,1.651828 1.02681,1.160744 1.02681,3.348301 0,2.276844 -1.33932,3.928672 -1.29468,1.651828 -3.83939,2.589352 -2.50006,0.937524 -6.11622,1.1161 -0.58038,0 -1.20539,0 -0.58037,0 -1.1161,0 -0.0446,0.535728 -0.0893,1.1161 -0.0446,0.535728 -0.0446,0.982168 0,1.964336 0.84823,3.080436 0.84824,1.071456 2.94651,1.071456 1.74111,0 3.43758,-0.758948 1.69648,-0.758948 2.54471,-2.2322 0.62502,0.357152 0.84824,0.89288 0.26786,0.491084 0.26786,1.205388 0,1.78576 -1.29467,3.169724 -1.25004,1.383964 -3.39295,2.142912 -2.09827,0.758948 -4.59833,0.758948 z m -1.20539,-13.437844 q 1.56254,0 2.81257,-0.44644 1.29468,-0.44644 2.2322,-1.250032 0.93753,-0.848236 1.42861,-2.00898 0.49109,-1.160744 0.49109,-2.589352 0,-1.160745 -0.44644,-1.785761 -0.4018,-0.66966 -1.38397,-0.66966 -0.84823,0 -1.65183,0.580372 -0.80359,0.580372 -1.47325,1.696473 -0.62501,1.1161 -1.16074,2.767928 -0.49109,1.607184 -0.84824,3.705452 z"
           id="path1015"
           style="fill:#000000;fill-opacity:0.501961;stroke-width:1.1161"
           d="m 243.85112,34.879698 c -1.81559,0.03528 -3.43553,-0.26547 -4.85863,-0.90722 -1.39295,-0.642121 -2.49995,-1.641875 -3.31392,-3.000123 -0.81455,-1.388173 -1.24794,-3.167636 -1.28634,-5.331341 -0.0352,-1.981009 0.21126,-3.903454 0.73695,-5.762367 0.55547,-1.85904 1.40572,-3.532538 2.54471,-5.017234 1.16906,-1.515176 2.6559,-2.704256 4.45321,-3.568504 1.79787,-0.864514 3.91804,-1.28253 6.35876,-1.262555 1.27974,0.01047 2.45274,0.185094 3.51911,0.521996 1.09672,0.307283 1.9813,0.865782 2.6565,1.674178 0.67561,0.778676 1.00662,1.895859 1.00076,3.35423 -0.006,1.51783 -0.4501,2.82678 -1.33774,3.9319 -0.85767,1.104772 -2.1296,1.976019 -3.81938,2.613686 -1.65958,0.637347 -3.69409,1.026429 -6.10294,1.162828 -0.38692,0.0025 -0.78871,0.0052 -1.20539,0.0079 -0.38691,0.0025 -0.75894,0.005 -1.1161,0.0073 -0.025,0.362773 -0.0495,0.740822 -0.0732,1.133891 -0.0241,0.362872 -0.0335,0.695495 -0.0281,0.997706 0.0234,1.32977 0.33015,2.369877 0.91395,3.117553 0.58321,0.717656 1.57553,1.065945 2.97437,1.046912 1.16084,-0.0158 2.29951,-0.287193 3.41758,-0.811286 1.11813,-0.524118 1.94807,-1.282371 2.49339,-2.274627 0.42156,0.234897 0.71058,0.530596 0.86742,0.88733 0.18595,0.326548 0.2846,0.72851 0.29661,1.206249 0.03,1.19427 -0.37018,2.259899 -1.2035,3.20084 -0.80343,0.940311 -1.90872,1.679161 -3.31851,2.21595 -1.3799,0.536188 -2.90282,0.822353 -4.56949,0.854738 -1e-5,0 -2e-5,0 -3e-5,0 z M 242.32666,21.26354 c 1.04166,-0.0045 1.97793,-0.159568 2.80894,-0.463875 0.86084,-0.304444 1.60201,-0.728012 2.22442,-1.270223 0.6223,-0.572289 1.09632,-1.24811 1.42346,-2.027957 0.32718,-0.779894 0.49259,-1.648766 0.49785,-2.608017 0.004,-0.779418 -0.13928,-1.379337 -0.43299,-1.800712 -0.26357,-0.451075 -0.72226,-0.678832 -1.37708,-0.682448 -0.56543,-0.0031 -1.11835,0.189085 -1.65786,0.577688 -0.53941,0.388541 -1.03571,0.958744 -1.48654,1.710934 -0.42096,0.752109 -0.81176,1.686851 -1.16852,2.803402 -0.32698,1.086264 -0.60571,2.340627 -0.83168,3.761208 z" />
      </g>
      <g
         aria-label="Tic Tac Toe"
         id="text965"
         style="font-style:normal;font-variant:normal;font-weight:bold;font-stretch:normal;font-size:44.644px;line-height:1.25;font-family:'Sansita Swashed';-inkscape-font-specification:'Sansita Swashed Bold';fill:#dde32b;fill-opacity:1;stroke:none;stroke-width:1.1161"
         inkscape:path-effect="#path-effect997">
        <path
           d="M 6.268625,18.16682 C 4.7804916,18.167866 3.5445722,17.768308 2.5628435,16.965039 1.5811513,16.161799 0.85372151,15.127004 0.38351675,13.861345 -0.08666473,12.595748 -0.31515036,11.252614 -0.30066674,9.8343362 -0.28187728,7.9944188 0.11563375,6.1761328 0.89144055,4.3847457 1.6977546,2.5552448 2.9364559,1.0605282 4.6016169,-0.09774669 6.2980293,-1.2941459 8.4571234,-1.865603 11.076394,-1.8212835 c 1.904698,0.032229 3.67124,0.2329775 5.299224,0.5999255 1.629064,0.32919145 3.183548,0.67475616 4.663275,1.03659292 1.479738,0.36183935 2.934201,0.5525939 4.362748,0.57425528 1.30954,0.0198569 2.535204,-0.18647358 3.677374,-0.61686788 1.172112,-0.42999181 2.233601,-1.19647672 3.188145,-2.29746222 0.69947,0.5343085 1.213795,1.3063511 1.545529,2.31627588 0.332692,0.97278096 0.485951,2.05325002 0.461377,3.24295692 -0.02457,1.1896902 -0.268926,2.3579316 -0.733337,3.5067958 -0.434633,1.1491121 -1.10168,2.1113829 -2.003493,2.8876246 -0.871603,0.7391687 -1.99105,1.1058607 -3.360133,1.0974737 C 26.212694,10.514254 24.475221,10.129695 22.965588,9.3676995 21.456137,8.6057953 20.142929,7.7108147 19.027137,6.6825042 17.911802,5.6546142 16.95944,4.7371956 16.171103,3.934577 16.145235,3.7264153 16.119457,3.5182371 16.09377,3.3100425 15.534179,3.000696 15.046282,2.8430282 14.629553,2.8376718 14.243407,2.7948634 13.841988,2.7707411 13.425315,2.7653644 12.026649,2.7473163 10.868571,3.3008538 9.9551856,4.4305971 9.0727562,5.5220523 8.6273308,7.2116468 8.6323515,9.4937212 c -0.011958,1.1029328 0.053617,2.1493768 0.1959793,3.1386318 0.1423303,0.989038 0.4640828,2.169323 0.967717,3.537388 -0.4773866,0.721341 -1.0575884,1.234588 -1.7420234,1.539216 -0.654661,0.304615 -1.2496237,0.457487 -1.7854014,0.457863 7e-7,0 1.3e-6,0 2e-6,0 z m 6.187051,21.322905 c -1.279794,0.025 -2.435147,-0.256049 -3.4649109,-0.845574 C 7.9610296,38.054642 7.4025662,37.264273 7.317316,36.274986 7.8163578,35.999993 8.1791226,35.632405 8.4060363,35.172121 8.6618209,34.673245 8.8542381,34.004694 8.9848519,33.166003 9.1157418,32.325539 9.2558084,31.205517 9.4104844,29.795391 10.149384,24.274988 10.951109,18.766718 11.815659,13.270584 12.40288,9.4421877 13.713299,6.5149471 15.714264,4.4962365 17.716755,2.4388566 20.529682,1.1799721 24.143568,0.70820387 22.551593,10.142566 21.149378,19.611574 19.936922,29.115227 c -0.291407,2.187976 -0.682122,4.057415 -1.180413,5.611897 -0.499034,1.516238 -1.240372,2.68038 -2.229211,3.492399 -0.958833,0.811263 -2.315702,1.235906 -4.071622,1.270202 z"
           style="font-style:normal;font-variant:normal;font-weight:900;font-stretch:normal;font-family:'Sansita Swashed';-inkscape-font-specification:'Sansita Swashed Heavy';letter-spacing:4.4644px;fill:#dde32b;fill-opacity:1;stroke-width:1.1161"
           id="path978"
           inkscape:original-d="m 6.6073133,17.991534 q -2.2322001,0 -3.7054521,-0.937524 Q 1.4286092,16.116486 0.71430515,14.643234 1.1358261e-6,13.169981 1.1358261e-6,11.518153 q 0,-2.1429116 1.1161000641739,-4.2411797 1.160744,-2.142912 3.616164,-3.526876 2.5000641,-1.4286081 6.4287358,-1.4286081 2.857216,0 5.312637,0.401796 2.45542,0.357152 4.68762,0.7589481 2.2322,0.401796 4.375112,0.401796 1.964336,0 3.660808,-0.535728 1.741116,-0.5357281 3.12508,-1.8750481 1.071456,0.625016 1.607184,1.830404 0.535728,1.1607441 0.535728,2.5893521 0,1.428608 -0.66966,2.8125721 -0.625016,1.3839636 -1.964336,2.3214876 -1.294676,0.89288 -3.3483,0.89288 -2.946504,0 -5.223348,-0.89288 Q 20.982682,10.134189 19.28621,8.9288014 17.589738,7.7234133 16.38435,6.7858893 l -0.08929,-0.491084 q -0.848237,-0.357152 -1.473253,-0.357152 -0.580372,-0.044644 -1.205388,-0.044644 -2.098268,0 -3.437588,1.33932 -1.2946757,1.2946761 -1.2500317,3.9733157 0,1.294676 0.22322,2.45542 0.22322,1.160745 0.9821677,2.767929 -0.7143037,0.848236 -1.7411157,1.205388 -0.982168,0.357152 -1.78576,0.357152 z m 5.8483637,16.7415 q -1.919692,0 -3.4375877,-0.714304 -1.517896,-0.714304 -1.607184,-1.875048 0.758948,-0.312508 1.1161,-0.848236 0.401796,-0.580372 0.625016,-1.56254 0.22322,-0.982168 0.4910841,-2.633996 L 12.143169,14.152149 q 0.848236,-4.5090436 3.79474,-6.9198197 2.946505,-2.45542 8.348429,-3.080436 L 20.17909,26.65247 q -0.491084,2.589352 -1.294676,4.419756 -0.803592,1.78576 -2.321488,2.723284 -1.473253,0.937524 -4.107249,0.937524 z" />
        <path
           d="m 41.085046,38.819619 c -1.607116,0.03123 -2.962455,-0.441836 -4.063161,-1.424103 -1.071501,-1.019416 -1.636663,-2.590261 -1.683504,-4.707498 -0.01724,-0.779349 0.02091,-1.802935 0.117562,-3.066275 0.125796,-1.301349 0.284052,-2.658492 0.475687,-4.070466 0.191162,-1.448841 0.388094,-2.805099 0.58886,-4.06687 0.2045,-1.324476 0.357789,-2.31259 0.479538,-3.116695 0.456991,-2.985502 0.933347,-5.967275 1.429066,-8.9453191 3.323238,-0.3835632 6.646837,-0.7634607 9.970798,-1.1396926 -1.163162,6.8177387 -2.222947,13.6554907 -3.179353,20.5132537 -0.02483,0.294981 -0.06307,0.663181 -0.114479,1.105822 -0.05207,0.405635 -0.07401,0.810998 -0.06582,1.215988 0.01488,0.736353 0.208787,1.433627 0.581375,2.090866 0.371779,0.620524 0.960981,0.960899 1.766366,1.022032 -0.348474,1.548904 -1.148941,2.684532 -2.40806,3.407877 -1.228054,0.759501 -2.525689,1.154476 -3.894876,1.18108 10e-7,0 2e-6,0 2e-6,0 z M 44.787528,5.1590919 C 43.299394,5.1425791 42.070848,4.7419467 41.103866,3.9540879 40.137021,3.1663413 39.6689,2.0309059 39.70512,0.5508594 c 0.03712,-1.51707353 0.591373,-2.6740403 1.656996,-3.4676077 1.067013,-0.8307404 2.345554,-1.2295786 3.833656,-1.2005139 1.458371,0.028484 2.63573,0.4564472 3.534246,1.2808319 0.89864,0.824498 1.327044,1.96820202 1.290591,3.43422355 C 49.983245,2.1004335 49.468334,3.247973 48.470126,4.043593 47.472772,4.8024058 46.245898,5.1752744 44.787528,5.1590919 Z"
           style="font-style:normal;font-variant:normal;font-weight:900;font-stretch:normal;font-family:'Sansita Swashed';-inkscape-font-specification:'Sansita Swashed Heavy';letter-spacing:4.4644px;fill:#dde32b;fill-opacity:1;stroke-width:1.1161"
           id="path980"
           inkscape:original-d="m 41.088525,34.643746 q -2.410776,0 -4.01796,-1.205388 -1.56254,-1.250032 -1.56254,-3.79474 0,-0.937524 0.178576,-2.45542 0.22322,-1.56254 0.535728,-3.259012 0.312508,-1.741116 0.625016,-3.259012 0.312508,-1.56254 0.491084,-2.500064 l 1.383964,-7.187685 9.955612,-0.982168 -3.214368,16.607569 q -0.04464,0.357152 -0.133932,0.89288 -0.08929,0.491084 -0.08929,0.982168 0,0.89288 0.535728,1.696472 0.535728,0.758948 1.741116,0.848236 -0.580372,1.875048 -2.500064,2.723284 -1.875048,0.89288 -3.928672,0.89288 z M 45.017197,7.5001933 q -2.2322,0 -3.705452,-0.937524 -1.473252,-0.937524 -1.473252,-2.723284 0,-1.8304041 1.56254,-2.8125721 1.56254,-1.0268120250732 3.79474,-1.0268120250732 2.187556,0 3.57152,0.9821680250732 1.383964,0.982168 1.383964,2.7679281 0,1.830404 -1.473252,2.812572 -1.473252,0.937524 -3.660808,0.937524 z" />
        <path
           d="m 63.856975,38.377141 c -2.88672,0.05609 -5.254066,-0.822154 -7.091744,-2.650598 -1.836965,-1.827735 -2.80668,-4.793487 -2.864578,-8.883538 -0.03825,-2.702276 0.300302,-5.170405 1.007618,-7.397001 0.707264,-2.263275 1.739271,-4.212331 3.08787,-5.844762 1.348674,-1.632522 2.953823,-2.875722 4.808917,-3.7321619 1.885633,-0.8926242 3.975257,-1.3258328 6.267025,-1.3070766 1.398778,0.011448 2.661353,0.2018187 3.787658,0.5693049 1.126423,0.3675249 2.011729,0.9831696 2.657914,1.8460486 0.676363,0.827341 1.008388,1.990769 1.001611,3.492656 -0.0089,1.966587 -0.57206,3.378315 -1.701607,4.239591 -1.129024,0.860877 -2.46627,1.295452 -4.013979,1.29926 -0.238076,5.85e-4 -0.565591,-0.01658 -0.982386,-0.05155 -0.416972,-0.07097 -0.759647,-0.178175 -1.028022,-0.321685 0.235529,-0.757076 0.426877,-1.693026 0.576643,-2.809089 0.179563,-1.152057 0.27264,-2.141007 0.277108,-2.968983 0.0031,-0.575854 -0.05304,-1.061864 -0.169076,-1.458393 -0.115736,-0.432435 -0.426249,-0.650169 -0.932253,-0.652811 -0.684416,-0.0036 -1.312939,0.353458 -1.883474,1.072892 -0.570419,0.719288 -1.081953,1.656865 -1.531415,2.812537 -0.419613,1.119604 -0.777214,2.349252 -1.070846,3.688241 -0.293642,1.339032 -0.523791,2.642948 -0.691068,3.910892 -0.137808,1.231312 -0.199505,2.282596 -0.187604,3.151262 0.01984,1.44821 0.277981,2.568728 0.76905,3.359119 0.491319,0.790793 1.348058,1.177432 2.568275,1.162116 1.130981,-0.0142 2.239715,-0.371127 3.327819,-1.067639 1.087494,-0.732553 1.857458,-1.764857 2.314396,-3.097501 0.631249,0.425421 1.085146,0.905508 1.362011,1.440721 0.276303,0.499425 0.421841,1.161007 0.438198,1.985556 0.03485,1.756509 -0.434879,3.232729 -1.415352,4.433795 -0.980375,1.200946 -2.248083,2.122819 -3.806709,2.764628 -1.558567,0.641784 -3.185479,0.981213 -4.882,1.014178 0,-2e-6 0,-3e-6 0,-5e-6 z"
           style="font-style:normal;font-variant:normal;font-weight:900;font-stretch:normal;font-family:'Sansita Swashed';-inkscape-font-specification:'Sansita Swashed Heavy';letter-spacing:4.4644px;fill:#dde32b;fill-opacity:1;stroke-width:1.1161"
           id="path982"
           inkscape:original-d="m 63.860454,34.643746 q -4.330468,0 -7.009108,-2.276844 -2.67864,-2.276844 -2.67864,-7.276972 0,-3.303656 1.071456,-6.02694 1.071456,-2.767928 3.080436,-4.776909 2.00898,-2.00898 4.776908,-3.080436 2.812572,-1.1161 6.25016,-1.1161 2.098268,0 3.79474,0.44644 1.696472,0.44644 2.67864,1.517896 1.026812,1.026812 1.026812,2.901861 0,2.45542 -1.696472,3.526876 -1.696472,1.071456 -4.01796,1.071456 -0.357152,0 -0.982168,-0.04464 -0.625016,-0.08929 -1.026812,-0.267864 0.357152,-0.937524 0.580372,-2.321488 0.267864,-1.428608 0.267864,-2.45542 0,-0.714305 -0.178576,-1.205389 -0.178576,-0.535728 -0.937524,-0.535728 -1.026812,0 -1.875048,0.89288 -0.848236,0.892881 -1.517896,2.321489 -0.625016,1.383964 -1.071456,3.035792 -0.44644,1.651828 -0.714304,3.214368 -0.22322,1.517896 -0.22322,2.589352 0,1.78576 0.714304,2.767928 0.714304,0.982168 2.544708,0.982168 1.696472,0 3.3483,-0.848236 1.651828,-0.89288 2.366132,-2.544708 0.937524,0.535728 1.33932,1.205388 0.401796,0.625016 0.401796,1.651828 0,2.187556 -1.517896,3.660808 -1.517896,1.473252 -3.884028,2.2322 -2.366132,0.758948 -4.91084,0.758948 z" />
        <path
           d="m 99.371267,17.733945 c -1.369082,4.81e-4 -2.515453,-0.349281 -3.437319,-1.052065 -0.892063,-0.702734 -1.559651,-1.617931 -1.99989,-2.745067 -0.440215,-1.127077 -0.653702,-2.342901 -0.638887,-3.645259 0.04898,-1.6893566 0.461597,-3.3409024 1.237005,-4.9497384 0.776159,-1.6441495 1.969835,-2.9981163 3.575578,-4.0602087 1.636079,-1.06200696 3.720176,-1.56732456 6.250186,-1.52451531 1.84517,0.0312212 3.5522,0.21691244 5.12065,0.55483224 1.5993,0.30377005 3.12403,0.62237901 4.57399,0.95573017 1.44999,0.3333573 2.88954,0.5098855 4.3181,0.5315471 1.27975,0.019405 2.46038,-0.1517456 3.54204,-0.5115943 1.11161,-0.35944505 2.12739,-1.02737847 3.05085,-2.00179715 0.61134,0.45501521 1.05353,1.09398558 1.32849,1.91710235 0.30473,0.8236043 0.44558,1.7119904 0.42349,2.6663418 -0.0237,1.0225146 -0.25259,2.0252449 -0.68702,3.0099988 -0.40467,0.9850193 -1.02707,1.7985196 -1.86936,2.4411232 -0.84226,0.6425879 -1.91737,0.9605372 -3.22693,0.9514632 -1.75605,-0.01217 -3.32976,-0.3316408 -4.7204,-0.9624575 -1.36072,-0.6305168 -2.58506,-1.3657322 -3.67213,-2.2060634 -1.08672,-0.8400631 -2.05476,-1.6131723 -2.90312,-2.3165109 -0.0262,-0.1736358 -0.0522,-0.3472866 -0.0782,-0.5209523 -0.61903,-0.2851887 -1.166,-0.4485686 -1.64148,-0.4895271 -0.44487,-0.075275 -0.9203,-0.1163229 -1.42626,-0.1230042 -1.4582,-0.019256 -2.6616,0.5040218 -3.60591,1.5747797 -0.91437,1.0708938 -1.39089,2.6911095 -1.41665,4.8564777 -0.012,1.012819 0.0535,1.973808 0.19574,2.882279 0.17201,0.908447 0.49393,1.957268 0.96764,3.143789 -0.44765,0.592495 -0.98343,1.011276 -1.60848,1.255858 -0.62504,0.244585 -1.175457,0.36727 -1.651713,0.367438 z m 6.053453,19.939975 c -1.13099,0.02209 -2.16608,-0.201548 -3.10441,-0.672859 -0.90854,-0.471857 -1.42042,-1.127205 -1.53389,-1.964707 0.46916,-0.252744 0.81687,-0.59051 1.04356,-1.01333 0.25555,-0.458285 0.44815,-1.054764 0.57915,-1.789798 0.16093,-0.736208 0.31664,-1.713942 0.47147,-2.937598 0.78626,-5.469015 1.6457,-10.923998 2.57833,-16.364949 0.55986,-3.3028404 1.74959,-5.8137942 3.53996,-7.5273028 1.79184,-1.7489677 4.34892,-2.8007212 7.66332,-3.1652061 -1.65493,8.8769929 -3.11019,17.7910709 -4.36578,26.7422319 -0.26154,1.870272 -0.62416,3.448352 -1.09545,4.737208 -0.47208,1.253801 -1.15685,2.218756 -2.05849,2.894764 -0.90142,0.67585 -2.14043,1.030738 -3.71777,1.061546 z"
           style="font-style:normal;font-variant:normal;font-weight:800;font-stretch:normal;font-family:'Sansita Swashed';-inkscape-font-specification:'Sansita Swashed Ultra-Bold';letter-spacing:2.2322px;fill:#dde32b;fill-opacity:1;stroke-width:1.1161"
           id="path984"
           inkscape:original-d="m 99.710285,17.679026 q -2.053624,0 -3.437588,-0.89288 -1.33932,-0.89288 -2.00898,-2.321488 -0.66966,-1.428609 -0.66966,-3.080437 0.04464,-2.1429116 1.160744,-4.1965357 1.1161,-2.098268 3.482232,-3.482232 2.410777,-1.3839641 6.205517,-1.3839641 2.76793,0 5.13406,0.401796 2.41078,0.357152 4.59833,0.7589481 2.18756,0.401796 4.33047,0.401796 1.91969,0 3.52688,-0.491084 1.65182,-0.4910841 2.99114,-1.7857601 0.93753,0.580372 1.38397,1.651828 0.49108,1.0714561 0.49108,2.3214881 0,1.33932 -0.62501,2.6339961 -0.58038,1.294676 -1.83041,2.1429116 -1.25003,0.848236 -3.21437,0.848236 -2.63399,0 -4.73226,-0.803592 -2.05362,-0.8035916 -3.70545,-1.8750476 -1.65183,-1.0714561 -2.94651,-1.9643361 l -0.0893,-0.44644 q -0.93753,-0.357152 -1.65183,-0.401796 -0.66966,-0.089288 -1.42861,-0.089288 -2.18756,0 -3.57152,1.383964 -1.33932,1.3839641 -1.33932,4.1518917 0,1.294676 0.22322,2.45542 0.26786,1.160745 0.98217,2.678641 -0.66966,0.758948 -1.60719,1.071456 -0.93752,0.312508 -1.651825,0.312508 z m 5.714435,17.054008 q -1.69648,0 -3.08044,-0.625016 -1.33932,-0.625016 -1.47325,-1.696472 0.7143,-0.312508 1.07145,-0.848236 0.4018,-0.580372 0.62502,-1.517896 0.26786,-0.937524 0.53573,-2.500064 l 2.67864,-13.973573 q 0.80359,-4.2411796 3.43759,-6.4733797 2.63399,-2.276844 7.58948,-2.812572 l -4.28583,23.0809487 q -0.44644,2.410776 -1.20538,4.062604 -0.75895,1.607184 -2.14292,2.45542 -1.38396,0.848236 -3.75009,0.848236 z" />
        <path
           d="m 128.85026,37.114265 c -1.66671,0.03239 -3.06498,-0.349286 -4.19223,-1.148995 -1.09845,-0.834318 -1.93797,-2.001107 -2.51237,-3.499715 -0.54452,-1.498742 -0.83769,-3.278273 -0.87175,-5.333919 -0.0431,-2.603966 0.27658,-5.005716 0.95151,-7.197935 0.70472,-2.192435 1.69069,-4.107097 2.94951,-5.741338 1.25895,-1.634414 2.73083,-2.886496 4.40795,-3.758623 1.67783,-0.9062728 3.47068,-1.3481018 5.37538,-1.3325135 1.54784,0.012668 3.135,0.3468635 4.76382,0.9979755 2.34046,-0.3027344 4.68119,-0.6032401 7.02219,-0.9015169 -1.16425,6.3558979 -2.22005,12.7322929 -3.16741,19.1291849 -0.0245,0.268643 -0.0625,0.603984 -0.11349,1.007138 -0.051,0.40297 -0.0725,0.772162 -0.0648,1.107405 0.0148,0.636989 0.19313,1.22152 0.53463,1.752809 0.34153,0.531365 0.88579,0.824269 1.6317,0.879484 -0.21471,0.8401 -0.62479,1.550119 -1.23179,2.130751 -0.57828,0.546586 -1.26426,0.962033 -2.05879,1.245874 -0.76479,0.283279 -1.51902,0.432608 -2.26312,0.447066 -0.98214,0.01908 -1.89812,-0.198817 -2.74712,-0.655542 -0.8489,-0.456665 -1.45286,-1.172455 -1.80887,-2.14713 -0.74815,0.891429 -1.67844,1.602157 -2.7928,2.131577 -1.08334,0.562681 -2.35388,0.859627 -3.81221,0.887963 z m 2.71075,-3.311392 c 0.77392,-0.01255 1.40382,-0.362102 1.89163,-1.046936 0.51674,-0.71925 0.89714,-1.570635 1.14308,-2.554821 0.27571,-0.98458 0.46576,-1.916359 0.56942,-2.796346 0.66035,-4.789935 1.38053,-9.569298 2.16053,-14.338089 -0.38463,-0.305171 -0.78453,-0.52644 -1.20005,-0.663552 -0.38546,-0.17073 -0.7418,-0.257082 -1.0692,-0.258775 -0.83317,-0.0043 -1.56681,0.414488 -2.1977,1.258946 -0.63045,0.810309 -1.17246,1.911067 -1.62044,3.301626 -0.41824,1.390637 -0.7573,2.902137 -1.01424,4.533222 -0.22743,1.597105 -0.38885,3.178141 -0.48467,4.742209 -0.066,1.563123 -0.084,2.941478 -0.0579,4.130212 0.0194,0.883588 0.14428,1.731874 0.37413,2.544104 0.22901,0.778423 0.73169,1.160748 1.50538,1.1482 z"
           style="font-style:normal;font-variant:normal;font-weight:800;font-stretch:normal;font-family:'Sansita Swashed';-inkscape-font-specification:'Sansita Swashed Ultra-Bold';letter-spacing:2.2322px;fill:#dde32b;fill-opacity:1;stroke-width:1.1161"
           id="path986"
           inkscape:original-d="m 128.85374,34.643746 q -2.50006,0 -4.15189,-1.071456 -1.60718,-1.1161 -2.41078,-3.080436 -0.75894,-1.964336 -0.75894,-4.642976 0,-3.392944 1.02681,-6.25016 1.07145,-2.857216 2.9465,-5.000128 1.87505,-2.142913 4.37512,-3.303657 2.50006,-1.205388 5.35728,-1.205388 2.32148,0 4.7769,0.848236 l 7.00911,-0.848236 -3.21437,17.009365 q -0.0446,0.357152 -0.13393,0.89288 -0.0893,0.535728 -0.0893,0.982168 0,0.848236 0.49109,1.56254 0.49108,0.714304 1.60718,0.803592 -0.35715,1.1161 -1.29467,1.875048 -0.89288,0.714304 -2.09827,1.071456 -1.16075,0.357152 -2.27685,0.357152 -1.47325,0 -2.72328,-0.625016 -1.25003,-0.625016 -1.74112,-1.919692 -1.16074,1.160744 -2.85721,1.830404 -1.65183,0.714304 -3.83939,0.714304 z m 2.81258,-2.857216 q 1.16074,0 1.91969,-0.89288 0.80359,-0.937524 1.20539,-2.2322 0.44644,-1.294676 0.62501,-2.45542 l 2.2322,-12.634253 q -0.58037,-0.401796 -1.20539,-0.580372 -0.58037,-0.22322 -1.07145,-0.22322 -1.25003,0 -2.18756,1.1161 -0.93752,1.071457 -1.60718,2.901861 -0.62502,1.830404 -1.02681,3.973316 -0.35716,2.098268 -0.53573,4.151892 -0.13393,2.053624 -0.13393,3.616164 0,1.160744 0.3125,2.2322 0.31251,1.026812 1.47326,1.026812 z" />
        <path
           d="m 159.9497,36.509976 c -2.82728,0.05494 -5.11943,-0.726253 -6.86702,-2.358496 -1.71806,-1.665238 -2.62731,-4.335119 -2.68516,-7.996839 -0.0379,-2.396714 0.27,-4.613291 0.91689,-6.643151 0.67658,-2.063318 1.6631,-3.856734 2.95183,-5.377773 1.28901,-1.554304 2.8499,-2.736499 4.67557,-3.549006 1.82646,-0.8456845 3.85683,-1.2556344 6.08907,-1.2373654 1.36901,0.011204 2.60157,0.2016672 3.69768,0.5694501 1.09668,0.3351463 1.95223,0.8959213 2.56878,1.6817253 0.64667,0.753392 0.96432,1.780047 0.95774,3.082233 -0.009,1.725236 -0.54268,2.977821 -1.61287,3.761837 -1.04003,0.751033 -2.27335,1.130135 -3.70201,1.133363 -0.26783,6.05e-4 -0.61029,-0.03135 -1.0272,-0.09598 -0.38718,-0.0647 -0.71493,-0.162373 -0.98325,-0.293077 0.23595,-0.656579 0.42776,-1.459759 0.57764,-2.41043 0.14987,-0.950659 0.22765,-1.78585 0.23179,-2.506986 0.003,-0.557148 -0.0825,-1.032628 -0.2578,-1.426856 -0.14549,-0.39401 -0.48578,-0.592636 -1.02154,-0.595434 -0.71418,-0.0037 -1.37246,0.321042 -1.97276,0.9762 -0.60019,0.65503 -1.14148,1.509111 -1.6207,2.562208 -0.44948,1.053179 -0.83668,2.190372 -1.15997,3.411001 -0.29353,1.220606 -0.52351,2.425735 -0.69026,3.614659 -0.13728,1.155492 -0.19826,2.146914 -0.18557,2.971767 0.0213,1.386187 0.2965,2.489743 0.82006,3.308066 0.52312,0.785746 1.4257,1.168967 2.70543,1.152197 1.16088,-0.01521 2.26836,-0.375166 3.32472,-1.07641 1.05648,-0.70132 1.8102,-1.675125 2.26582,-2.922021 0.60066,0.3216 1.03928,0.725827 1.31636,1.2129 0.27651,0.454478 0.42203,1.040449 0.43794,1.758637 0.0333,1.501552 -0.42299,2.7973 -1.37357,3.892094 -0.92171,1.061546 -2.13047,1.88572 -3.62957,2.471818 -1.46934,0.585546 -3.0516,0.896706 -4.74807,0.92967 0,0 0,10e-7 0,2e-6 z"
           style="font-style:normal;font-variant:normal;font-weight:800;font-stretch:normal;font-family:'Sansita Swashed';-inkscape-font-specification:'Sansita Swashed Ultra-Bold';letter-spacing:2.2322px;fill:#dde32b;fill-opacity:1;stroke-width:1.1161"
           id="path988"
           inkscape:original-d="m 159.95318,34.643746 q -4.24118,0 -6.78589,-2.2322 -2.50006,-2.276844 -2.50006,-7.187684 0,-3.214368 0.98216,-5.937652 1.02682,-2.767928 2.94651,-4.821552 1.91969,-2.098269 4.64297,-3.214369 2.72329,-1.160744 6.07159,-1.160744 2.05362,0 3.70545,0.491084 1.65183,0.44644 2.58935,1.517896 0.98217,1.026812 0.98217,2.812573 0,2.366132 -1.60718,3.437588 -1.56254,1.026812 -3.70546,1.026812 -0.40179,0 -1.02681,-0.08929 -0.58037,-0.08929 -0.98217,-0.267864 0.35716,-0.89288 0.58038,-2.187556 0.22322,-1.294676 0.22322,-2.276844 0,-0.758949 -0.26787,-1.294677 -0.22322,-0.535728 -1.02681,-0.535728 -1.07146,0 -1.96434,0.89288 -0.89288,0.892881 -1.60718,2.321489 -0.66966,1.428608 -1.16074,3.080436 -0.44644,1.651828 -0.71431,3.259012 -0.22322,1.56254 -0.22322,2.67864 0,1.875048 0.75895,2.991148 0.75895,1.071456 2.67864,1.071456 1.74112,0 3.3483,-0.937524 1.60718,-0.937524 2.32149,-2.633996 0.89288,0.44644 1.29467,1.1161 0.4018,0.625016 0.4018,1.607184 0,2.053624 -1.47325,3.526876 -1.42861,1.428608 -3.70545,2.187556 -2.2322,0.758948 -4.77691,0.758948 z" />
        <path
           d="m 190.52095,17.318599 c -1.25004,-6.3e-5 -2.29195,-0.287791 -3.12428,-0.865443 -0.83223,-0.60967 -1.45489,-1.413168 -1.86519,-2.410068 -0.41028,-0.996865 -0.59388,-2.090652 -0.54897,-3.27925 0.0192,-1.5101001 0.40203,-3.001661 1.14795,-4.4697332 0.77568,-1.4677284 1.95379,-2.6703056 3.52887,-3.6058934 1.60631,-0.9674307 3.61603,-1.4265883 6.02697,-1.3857938 1.78565,0.030214 3.44802,0.2013965 4.98672,0.511357 1.56953,0.2788595 3.0645,0.5710558 4.4847,0.8764963 1.42022,0.3054467 2.83001,0.4678141 4.22881,0.4890244 1.22023,0.018503 2.35577,-0.1209161 3.40671,-0.4166238 1.05102,-0.2957295 2.02119,-0.8725742 2.91359,-1.7284627 0.52321,0.3827493 0.90755,0.9179365 1.15464,1.6056917 0.24804,0.6567107 0.36156,1.3728086 0.34139,2.1491947 -0.0218,0.8384946 -0.23485,1.6743666 -0.6392,2.5091895 -0.37455,0.835103 -0.96733,1.529096 -1.78013,2.0825991 -0.78238,0.5225228 -1.7833,0.7801992 -3.00354,0.7707642 -1.54771,-0.01197 -2.95797,-0.2571969 -4.23032,-0.7387343 -1.27174,-0.5128744 -2.43721,-1.1053348 -3.49578,-1.7777998 -1.02876,-0.7040389 -1.99565,-1.3612772 -2.90488,-1.9733738 -0.0264,-0.1425324 -0.0528,-0.2850783 -0.0791,-0.4276376 -0.64794,-0.2927878 -1.23868,-0.4747554 -1.77287,-0.5452543 -0.53412,-0.070489 -1.09883,-0.1098373 -1.69407,-0.1178768 -1.54749,-0.020901 -2.79665,0.4859088 -3.7428,1.5258058 -0.94521,1.0078005 -1.43809,2.5341397 -1.46486,4.5745708 -0.0419,0.924358 0.008,1.817554 0.15047,2.678819 0.17203,0.829456 0.4943,1.738984 0.96799,2.72671 -0.4178,0.445225 -0.90915,0.763609 -1.47478,0.954769 -0.56564,0.191163 -1.07152,0.286975 -1.518,0.286953 0,0 0,0 1e-5,0 z m 5.96426,18.576792 c -1.01193,0.01976 -1.92737,-0.16898 -2.74557,-0.567805 -0.81706,-0.366973 -1.29655,-0.884781 -1.43713,-1.552537 0.43927,-0.230935 0.78681,-0.539734 1.04305,-0.926358 0.2553,-0.418529 0.4481,-0.947108 0.57953,-1.58602 0.16042,-0.671598 0.30169,-1.532274 0.42718,-2.584512 0.84867,-5.341189 1.78117,-10.666108 2.79751,-15.974757 0.53203,-2.8207535 1.60089,-4.9512787 3.18058,-6.3876345 1.61088,-1.4682963 3.91218,-2.3333593 6.89734,-2.603944 -1.71777,8.2967065 -3.2257,16.6330135 -4.52379,25.0089215 -0.23277,1.54895 -0.56823,2.847343 -1.01282,3.897406 -0.44445,1.049736 -1.07211,1.851466 -1.88657,2.404956 -0.81428,0.553368 -1.92054,0.844964 -3.31931,0.872284 z"
           style="fill:#dde32b;fill-opacity:1;stroke-width:1.1161"
           id="path990"
           inkscape:original-d="m 190.86007,17.321874 q -1.87505,0 -3.12508,-0.803592 -1.25003,-0.848236 -1.87505,-2.232201 -0.62501,-1.383964 -0.58037,-3.035792 0,-2.0982676 1.07146,-4.1518917 1.1161,-2.053624 3.43758,-3.392944 2.36614,-1.3839641 5.9823,-1.3839641 2.67864,0 5.00013,0.401796 2.36613,0.357152 4.50904,0.7589481 2.14291,0.401796 4.24118,0.401796 1.83041,0 3.39295,-0.44644 1.56254,-0.4464401 2.85721,-1.6964721 0.80359,0.535728 1.20539,1.517896 0.4018,0.9375241 0.4018,2.0536241 0,1.205388 -0.58038,2.410776 -0.53572,1.2053881 -1.74111,2.0089801 -1.16075,0.7589476 -2.99115,0.7589476 -2.32149,0 -4.24118,-0.6696596 -1.91969,-0.714304 -3.52688,-1.651828 -1.56254,-0.9821681 -2.9465,-1.8304041 l -0.0893,-0.401796 q -0.98217,-0.401796 -1.78576,-0.491084 -0.80359,-0.089288 -1.69647,-0.089288 -2.32149,0 -3.70545,1.473252 -1.38397,1.4286081 -1.38397,4.2858237 -0.0446,1.294676 0.17858,2.500064 0.26786,1.160745 0.98217,2.544709 -0.62502,0.625016 -1.47325,0.89288 -0.84824,0.267864 -1.5179,0.267864 z m 5.62514,17.41116 q -1.51789,0 -2.72328,-0.580372 -1.20539,-0.535728 -1.38396,-1.473252 0.66966,-0.312508 1.07145,-0.848236 0.4018,-0.580372 0.62502,-1.473252 0.26786,-0.937524 0.49108,-2.410776 l 2.90186,-14.955741 q 0.75895,-3.9733156 3.08044,-6.0269397 2.36613,-2.098268 6.83053,-2.544708 l -4.4644,23.6613207 q -0.4018,2.187556 -1.1161,3.660808 -0.7143,1.473252 -1.96434,2.2322 -1.25003,0.758948 -3.3483,0.758948 z" />
        <path
           d="m 219.08975,35.360833 c -1.48822,0.02892 -2.82065,-0.162394 -3.99716,-0.576545 -1.17524,-0.382964 -2.16388,-0.973544 -2.96366,-1.772498 -0.80074,-0.830148 -1.41097,-1.821927 -1.82775,-2.974293 -0.41673,-1.152245 -0.64009,-2.465348 -0.66621,-3.936664 -0.04,-2.253985 0.23555,-4.369904 0.82117,-6.341711 0.5855,-2.003182 1.46702,-3.752829 2.63651,-5.246286 1.16957,-1.493556 2.61158,-2.652787 4.31893,-3.479357 1.73757,-0.826579 3.72346,-1.226968 5.95575,-1.2086986 1.51779,0.012422 2.83896,0.2391136 3.96353,0.6774816 1.15496,0.407947 2.09906,1.012315 2.83458,1.812464 0.76532,0.800358 1.33723,1.765834 1.71894,2.897407 0.3819,1.101132 0.57336,2.352828 0.57817,3.757691 0.008,2.198846 -0.26752,4.276047 -0.83009,6.237662 -0.56306,1.93095 -1.41555,3.654381 -2.56469,5.173667 -1.11924,1.518684 -2.50841,2.725373 -4.17486,3.618552 -1.66709,0.862151 -3.60079,1.318334 -5.80316,1.361128 z m 0.61829,-2.801544 c 0.74423,-0.01222 1.40213,-0.379367 1.97646,-1.099269 0.57358,-0.751015 1.05231,-1.730502 1.44095,-2.93906 0.41766,-1.239736 0.74819,-2.584298 0.99443,-4.034993 0.276,-1.450848 0.46931,-2.8996 0.57994,-4.347522 0.14024,-1.479139 0.21364,-2.817771 0.21679,-4.018995 0.003,-1.046992 -0.15535,-1.893894 -0.47766,-2.542341 -0.32217,-0.648171 -0.92872,-0.975306 -1.82169,-0.979924 -0.77365,-0.004 -1.47734,0.362858 -2.10806,1.102977 -0.60053,0.709075 -1.12751,1.667899 -1.57588,2.876058 -0.41855,1.177187 -0.7588,2.495966 -1.01709,3.954984 -0.25832,1.45915 -0.45041,2.934885 -0.57584,4.426371 -0.0962,1.460049 -0.12767,2.827463 -0.0969,4.100491 0.0247,1.024712 0.21227,1.876659 0.55973,2.554348 0.37644,0.646429 1.01204,0.961533 1.90484,0.946875 z"
           style="fill:#dde32b;fill-opacity:1;stroke-width:1.1161"
           id="path992"
           inkscape:original-d="m 219.09323,34.643746 q -2.2322,0 -3.97332,-0.625016 -1.74112,-0.580372 -2.90186,-1.741116 -1.16074,-1.205388 -1.74112,-2.857216 -0.58037,-1.651828 -0.58037,-3.750096 0,-3.214368 0.89288,-6.02694 0.89288,-2.857216 2.634,-5.000128 1.74111,-2.142913 4.28582,-3.348301 2.58935,-1.205388 5.93765,-1.205388 2.27685,0 3.97332,0.625016 1.74112,0.580372 2.85722,1.741116 1.16074,1.160744 1.74111,2.812573 0.58037,1.607184 0.58037,3.660808 0,3.214368 -0.89288,6.071584 -0.89288,2.812572 -2.67864,5.000128 -1.74111,2.187556 -4.28582,3.437588 -2.54471,1.205388 -5.84836,1.205388 z m 0.7143,-2.67864 q 1.1161,0 2.00898,-1.026812 0.89288,-1.071456 1.5179,-2.812572 0.66966,-1.78576 1.07145,-3.884028 0.44644,-2.098268 0.62502,-4.196536 0.22322,-2.142912 0.22322,-3.884028 0,-1.517896 -0.49109,-2.455421 -0.49108,-0.937524 -1.8304,-0.937524 -1.16074,0 -2.09827,1.071456 -0.89288,1.026813 -1.56254,2.767929 -0.62501,1.696472 -1.02681,3.79474 -0.4018,2.098268 -0.62502,4.24118 -0.17857,2.098268 -0.17857,3.928672 0,1.473252 0.49108,2.45542 0.53573,0.937524 1.87505,0.937524 z" />
        <path
           d="m 243.85112,34.879698 c -1.81559,0.03528 -3.43553,-0.26547 -4.85863,-0.90722 -1.39295,-0.642121 -2.49995,-1.641875 -3.31392,-3.000123 -0.81455,-1.388173 -1.24794,-3.167636 -1.28634,-5.331341 -0.0352,-1.981009 0.21126,-3.903454 0.73695,-5.762367 0.55547,-1.85904 1.40572,-3.532538 2.54471,-5.017234 1.16906,-1.515176 2.6559,-2.704256 4.45321,-3.568504 1.79787,-0.864514 3.91804,-1.28253 6.35876,-1.262555 1.27974,0.01047 2.45274,0.185094 3.51911,0.521996 1.09672,0.307283 1.9813,0.865782 2.6565,1.674178 0.67561,0.778676 1.00662,1.895859 1.00076,3.35423 -0.006,1.51783 -0.4501,2.82678 -1.33774,3.9319 -0.85767,1.104772 -2.1296,1.976019 -3.81938,2.613686 -1.65958,0.637347 -3.69409,1.026429 -6.10294,1.162828 -0.38692,0.0025 -0.78871,0.0052 -1.20539,0.0079 -0.38691,0.0025 -0.75894,0.005 -1.1161,0.0073 -0.025,0.362773 -0.0495,0.740822 -0.0732,1.133891 -0.0241,0.362872 -0.0335,0.695495 -0.0281,0.997706 0.0234,1.32977 0.33015,2.369877 0.91395,3.117553 0.58321,0.717656 1.57553,1.065945 2.97437,1.046912 1.16084,-0.0158 2.29951,-0.287193 3.41758,-0.811286 1.11813,-0.524118 1.94807,-1.282371 2.49339,-2.274627 0.42156,0.234897 0.71058,0.530596 0.86742,0.88733 0.18595,0.326548 0.2846,0.72851 0.29661,1.206249 0.03,1.19427 -0.37018,2.259899 -1.2035,3.20084 -0.80343,0.940311 -1.90872,1.679161 -3.31851,2.21595 -1.3799,0.536188 -2.90282,0.822353 -4.56949,0.854738 -1e-5,0 -2e-5,0 -3e-5,0 z M 242.32666,21.26354 c 1.04166,-0.0045 1.97793,-0.159568 2.80894,-0.463875 0.86084,-0.304444 1.60201,-0.728012 2.22442,-1.270223 0.6223,-0.572289 1.09632,-1.24811 1.42346,-2.027957 0.32718,-0.779894 0.49259,-1.648766 0.49785,-2.608017 0.004,-0.779418 -0.13928,-1.379337 -0.43299,-1.800712 -0.26357,-0.451075 -0.72226,-0.678832 -1.37708,-0.682448 -0.56543,-0.0031 -1.11835,0.189085 -1.65786,0.577688 -0.53941,0.388541 -1.03571,0.958744 -1.48654,1.710934 -0.42096,0.752109 -0.81176,1.686851 -1.16852,2.803402 -0.32698,1.086264 -0.60571,2.340627 -0.83168,3.761208 z"
           style="fill:#dde32b;fill-opacity:1;stroke-width:1.1161"
           id="path994"
           inkscape:original-d="m 243.8546,34.643746 q -2.72328,0 -4.82155,-0.982168 -2.05363,-0.982168 -3.21437,-2.991148 -1.16074,-2.053624 -1.16074,-5.223348 0,-2.90186 0.80359,-5.625144 0.84823,-2.723284 2.54471,-4.91084 1.74111,-2.232201 4.41975,-3.526877 2.67864,-1.294676 6.33945,-1.294676 1.91969,0 3.52688,0.491084 1.65182,0.44644 2.67864,1.651828 1.02681,1.160744 1.02681,3.348301 0,2.276844 -1.33932,3.928672 -1.29468,1.651828 -3.83939,2.589352 -2.50006,0.937524 -6.11622,1.1161 -0.58038,0 -1.20539,0 -0.58037,0 -1.1161,0 -0.0446,0.535728 -0.0893,1.1161 -0.0446,0.535728 -0.0446,0.982168 0,1.964336 0.84823,3.080436 0.84824,1.071456 2.94651,1.071456 1.74111,0 3.43758,-0.758948 1.69648,-0.758948 2.54471,-2.2322 0.62502,0.357152 0.84824,0.89288 0.26786,0.491084 0.26786,1.205388 0,1.78576 -1.29467,3.169724 -1.25004,1.383964 -3.39295,2.142912 -2.09827,0.758948 -4.59833,0.758948 z m -1.20539,-13.437844 q 1.56254,0 2.81257,-0.44644 1.29468,-0.44644 2.2322,-1.250032 0.93753,-0.848236 1.42861,-2.00898 0.49109,-1.160744 0.49109,-2.589352 0,-1.160745 -0.44644,-1.785761 -0.4018,-0.66966 -1.38397,-0.66966 -0.84823,0 -1.65183,0.580372 -0.80359,0.580372 -1.47325,1.696473 -0.62501,1.1161 -1.16074,2.767928 -0.49109,1.607184 -0.84824,3.705452 z" />
      </g>
    </g>
  </g>
</svg>
